<svg xmlns="http://www.w3.org/2000/svg" width="770.951" height="345.299" viewBox="0 0 770.951 345.299">
    <defs>
        <style>.a,.b{fill:none;stroke:#353434;stroke-linecap:round;stroke-linejoin:round;}.b{stroke-width:2px;}</style>
    </defs>
    <g transform="translate(-1158.339 -4297.685)">
        <g transform="translate(1263.888 4375.728)">
            <path class="a"
                  d="M1589.044,4635.688l.349.091.124.032.265.07.118.029.612.16.021,0,.357.094.021.006.682.177.08.022.289.073.076.02.655.17.181.048.177.045.172.046.61.159.28.073.065.017.267.069.567.147.331.086.048.013.313.082.526.137.314.081.161.042.292.077.486.125.294.076.276.072.268.07.448.117.275.07.391.1.243.063.411.108.253.065.506.132.217.056.377.1.229.059.62.162.19.049.343.089.2.053.734.19.161.043.31.08.179.046.848.22.132.035.279.072.151.04.962.25.1.027.248.064.124.032,1.073.279.07.018.218.056.1.025.938.244.176.043.075.018.04.009.064.015.133.029.049.011.02,0,.166.032.188.033.19.031.193.027.194.025.2.022.2.019.156.012h0l.025,0h.017l.164.01h.036l.2.011h.038l.165.007.2,0,.2,0h.073l.13,0,.2,0,.11,0,.055,0h.037l.2-.011.2-.013.2-.017.2-.02.2-.022.195-.024.193-.026.191-.033.188-.032.185-.036.182-.039.179-.042.176-.044.172-.046.169-.05.165-.05.16-.055.157-.055.152-.06.148-.061.142-.062.138-.066.132-.066.127-.069.122-.071.116-.072.111-.075.1-.075.094-.073.005,0,.092-.078.087-.079.016-.018.064-.064.074-.083.067-.083.061-.082.054-.086.048-.085.041-.085.034-.086.028-.088.021-.086.013-.084v-.006l.008-.087v-.088l-.008-.087-.014-.087-.02-.086-.027-.088-.034-.088-.041-.086-.047-.084-.055-.084-.05-.07-.01-.014-.067-.084-.055-.059-.019-.021-.08-.082-.086-.08-.093-.078-.1-.077-.1-.077-.11-.073-.116-.072-.122-.071-.127-.069-.132-.066h0l-.138-.065-.142-.062h0l-.144-.059-.152-.059-.156-.057-.161-.054-.164-.052-.169-.048-.172-.047-1.271-.331-3.151-.82-.074-.019-.3-.077-.256-.067-.083-.022-.253-.065-.02,0-.388-.1-.158-.041-.013-.005-.135-.033-.669-.175-.047-.012-.516-.135-.027-.008-.764-.2-.076-.019-.546-.144-.057-.014-.646-.168-.1-.026-.578-.15-.087-.023-.527-.137-.128-.032-.611-.16-.115-.03-.41-.106-.152-.04-.645-.168-.142-.036-.292-.076-.175-.045-.68-.177-.167-.044-.174-.045-.2-.051-.718-.186-.191-.051-.057-.014-.214-.055-.757-.2-.152-.04-.06-.016-.172-.044-.8-.208-.057-.014-.176-.047-.071-.018-.8-.208-.04-.011-.219-.057-.031-.008-.715-.186-.138-.037-.133-.035-.133-.034-.354-.091-.176-.044-.033-.007-.146-.034-.1-.021-.046-.011-.038-.007-.185-.037-.03,0-.158-.028-.19-.029-.1-.015-.092-.014-.2-.024-.044-.005-.056-.006-.1-.012-.2-.019-.055-.005-.145-.011-.162-.011-.038,0-.2-.011-.135-.005h-.067l-.116,0-.087,0h-.449l-.159,0-.2.007-.065,0-.137.007-.2.014h-.009l-.191.016-.2.019h0l-.107.012-.089.011-.2.022-.108.016-.085.013-.19.03-.188.032-.118.024-.068.014-.133.028-.049.011-.18.042-.176.043-.054.015-.118.031-.063.019-.106.031-.165.051-.161.053-.156.058-.152.057-.147.062-.142.063-.007,0-.13.061-.021.01-.111.057-.128.068-.122.071-.116.071-.11.075-.1.075-.1.076-.093.079-.086.08-.08.08-.073.081-.024.029-.044.054-.019.027-.042.057-.054.085-.048.086-.041.086-.034.085-.028.087-.01.049-.009.039-.008.056-.005.031-.007.087v.088l0,.06,0,.027.013.081v.008l.021.088.027.086.013.032.022.054.041.085.02.037.027.05.023.037.031.047.061.085.035.042.032.041.045.049.029.031.08.082.086.08.022.018.013.01.057.05.1.078.1.075,0,0,.026.017.081.055.116.073.083.047.039.023.088.047.039.021.132.068.1.045.041.019.016.006.126.056.146.062h0l.151.058.127.046.03.009.16.055.021.007.143.044.018.005.15.044.062.017.111.03"
                  transform="translate(-1553.97 -4600.447)"/>
            <path class="a"
                  d="M1589.266,4635.713l-.112-.03-.057-.016-.155-.045-.01,0-.15-.047-.011,0-.157-.052-.042-.014-.111-.041-.148-.057-.02-.008-.125-.052-.139-.061-.008,0-.056-.025-.071-.034-.13-.063-.065-.037-.059-.032-.068-.04-.052-.029-.113-.071-.108-.072,0,0-.026-.02-.072-.052-.1-.076-.091-.077h0l-.013-.011-.072-.066-.079-.079-.062-.07-.01-.01-.065-.082h0l-.06-.081-.053-.083-.007-.014-.039-.071-.008-.016-.032-.067-.033-.084-.009-.03-.017-.056-.02-.085-.013-.084h0l-.007-.085v-.087l.007-.086.014-.085.011-.047.009-.038.021-.066.006-.02.034-.084.04-.084.047-.083.053-.085.06-.081.066-.082.073-.082.078-.079.029-.027.055-.05.091-.078.1-.075.1-.075.108-.073.114-.069.034-.019.086-.05.124-.067.13-.064.134-.064.14-.062.144-.059.149-.057.153-.055.157-.053.047-.016.115-.036.078-.022.088-.025.169-.047.173-.042.054-.013.122-.027.087-.019.092-.02.181-.035.185-.033.135-.022.052-.008.189-.028.159-.019.032-.005.078-.009.114-.012.195-.019.085-.006.109-.01.2-.014.042,0,.156-.007.2-.007h.078l.121,0h.005l.194,0,.2,0h.022l.176,0h.007l.192.007.187.009h.011l.2.014.1.008.1.008.194.018.061.007.055.006.077.009.19.023.066.01.123.02.187.028.139.026.045.006.181.037.027,0,.046.009.105.022.14.032.035.009.173.042.354.092.133.035.134.036.137.036.715.186.03.008.221.057.04.01.8.208.072.018.176.046.057.014.8.207.172.044.061.017.152.04.755.2.217.056.055.014.193.05.716.186.2.051.172.045.169.044.679.177.176.045.29.075.144.037.644.167.153.04.408.106.117.03.609.158.129.033.526.137.089.023.576.15.1.026.645.167.059.016.545.142.078.02.762.2.029.007.514.135.049.011.744.193.087.022.062.016.048.011.422.112.021,0,.251.065.113.029.264.067.336.088.073.019,1.194.31,3.151.818.169.046.165.047.162.052.157.052.153.055.149.058.071.028.074.031.139.06.07.034.065.03.129.065.125.068.119.068.113.071.108.072.1.074.1.077.091.076.084.078.078.08.011.012.061.067.066.081,0,.007.055.077.053.083.046.083.04.085.033.084.026.085.02.087.013.085.008.087v.085l-.008.086,0,.021-.01.065-.02.084-.027.084-.033.086-.04.084-.046.084-.053.082-.06.083-.066.081-.072.081-.078.079-.036.034-.048.044-.091.077-.068.052-.029.022-.1.074-.108.073-.114.071-.119.069-.124.066-.13.066-.134.062-.141.063-.143.06-.149.056-.153.057-.157.051-.162.051-.165.047-.17.045-.172.043-.176.041-.179.038-.181.035-.184.032-.187.031-.189.027-.191.025-.193.022-.194.018-.2.017-.2.012-.2.01-.045,0h-.055l-.1,0-.2.005h-.4l-.2-.005-.1,0-.095,0-.149-.006-.035,0h-.017l-.194-.012-.028,0h-.031l-.137-.01-.194-.02-.193-.02-.19-.025-.189-.027-.187-.031-.184-.032-.153-.028-.029-.007-.038-.008-.14-.029-.059-.014-.038-.01-.079-.017-.172-.043-.94-.244-.093-.025-.22-.057-.069-.018-1.075-.278-.122-.033-.25-.065-.1-.025-.963-.251-.15-.039-.28-.072-.13-.035-.85-.221-.176-.046-.312-.081-.16-.042-.735-.19-.2-.053-.345-.09-.188-.048-.621-.162-.228-.06-.378-.1-.216-.055-.506-.134-.251-.062-.414-.108-.242-.063-.393-.1-.273-.069-.449-.118-.267-.069-.277-.073-.294-.075-.487-.127-.29-.075-.163-.043-.312-.081-.527-.137-.311-.082-.049-.013-.329-.085-.569-.147-.267-.07-.064-.017-.281-.073-.611-.159-.172-.045-.176-.046-.181-.045-.656-.17-.076-.021-.288-.073-.08-.021-.683-.177-.021-.007-.356-.092-.021-.006-.612-.16-.119-.03-.264-.068-.124-.032-.349-.091"
                  transform="translate(-1554.128 -4600.514)"/>
            <path class="b"
                  d="M1546.153,4673.611l-1.148-.329-1.148-.368-1.146-.412-1.14-.449-1.136-.491-1.129-.527-1.122-.569-1.112-.606-1.1-.643-1.091-.679-1.077-.717-1.063-.751-1.048-.784-1.032-.819-1.014-.848-1-.882-.976-.912-.955-.941-.932-.968-.91-1-.885-1.023-.86-1.046-.835-1.073-.807-1.093-.779-1.117-.75-1.133-.721-1.154-.69-1.172-.659-1.187-.627-1.2-.594-1.216-.56-1.228-.527-1.237-.491-1.249-.457-1.254-.421-1.262-.385-1.266-.348-1.27-.311-1.273-.274-1.271-.236-1.272-.2-1.269-.16-1.268-.121-1.26-.083-1.254-.044-1.245-.006-1.238.033-1.228.072-1.212.11-1.2.149-1.185.187-1.171.224-1.151.263-1.133.3-1.114.337-1.09.374-1.069.41-1.046.446-1.019.482-.994.516-.968.135-.236.142-.241.149-.239.155-.245.163-.244.168-.249.174-.247.18-.25.186-.25.191-.251.2-.252.2-.25.207-.253.213-.25.218-.25.221-.253.227-.248.231-.249.235-.248.239-.246.242-.246.245-.244.248-.241.251-.239.254-.241.255-.233.256-.233.259-.232.26-.231.261-.226.262-.223.262-.222.261-.218.262-.216.261-.211.262-.209.267-.212.27-.212.273-.209.275-.211.276-.211.278-.208.279-.208.278-.208,1.246-.917,2.642-1.946,2.642-1.946,2.641-1.944,2.642-1.948,2.642-1.943,2.642-1.948,2.641-1.944,2.642-1.946,2.642-1.944,2.642-1.945,2.641-1.945,2.642-1.946,2.642-1.946,2.642-1.945,2.642-1.946,2.641-1.945,2.642-1.944,2.641-1.947,2.642-1.946.85-.6.876-.563,2.532.673,38.24,10.161"
                  transform="translate(-1512.045 -4562.463)"/>
            <path class="b"
                  d="M1697.153,4588.392l-1.49,1.1-1.237.914-.152.113-.156.114-.292.216-.984.728-2.155,1.593-.282.207-.039.028-.254.19-.155.113-2.451,1.813-.542.4-2.642,1.952-.971.717-1.9,1.408-1.788,1.321-2.641,1.953-2.641,1.952-2.641,1.951-.463.342-.156.115-.646.478-.343.253-.13.1-2.642,1.952-.642.475-.995.736-.636.47-1.02.751-.117.087-.6.441-.767.567-2.269,1.675-.256.189-2.641,1.952-2.642,1.954-2.642,1.953-2.641,1.95-.448.332-.154.113-.077.06-.041.029-.044.035-.081.066-.08.072-.078.071-.075.074-.072.079-.07.08-.067.083-.066.085-.062.087-.06.091-.058.093-.056.095-.052.1-.051.1-.026.054-.022.047-.045.1-.043.107-.041.109-.039.11-.036.111-.034.114-.061.235-.052.243-.04.226,0,.021-.035.254-.028.261-.019.266-.012.272-.005.277,0,.279.009.284.015.287.02.289.026.292.03.293.035.293.04.294.044.292.047.294.051.3.055.3.06.306.063.307.067.313.071.315.074.317.078.324.082.325.084.327.087.332.091.33.094.333.1.337.1.335.1.337.1.339.107.34.109.339.111.342.114.338.115.34.117.338.119.34.121.336.122.333.123.336.125.33.126.33.128.326.128.322.13.322.13.315.131.313.132.312.516,1.244.482,1.255.446,1.26.411,1.267.374,1.273.337,1.274.3,1.277.263,1.277.225,1.276.186,1.271.148,1.271.11,1.262.072,1.257.032,1.249,0,1.236,0,.093-.042,1.134-.032.483-.05.732-.121,1.2-.16,1.186-.2,1.168-.236,1.151-.274,1.129-.311,1.113-.348,1.087-.385,1.066-.421,1.04-.457,1.018-.492.988-.526.964-.434.721-.126.209-.594.9-.627.873-.659.841-.69.805-.721.774-.75.738-.78.707-.807.664-.834.63"
                  transform="translate(-1586.655 -4577.136)"/>
            <path class="b" d="M1590.852,4812.75" transform="translate(-1556.642 -4701.68)"/>
            <path class="b"
                  d="M1664.609,4586.875l2.532.675.875,1.032.85,1.057.824,1.083.8,1.1.768,1.12.739,1.144.709,1.163.679,1.18.646,1.193.615,1.206.582,1.222.548,1.232.515,1.245.479,1.249.444,1.26.408,1.266.372,1.268.335,1.274.3,1.271.261,1.275.223,1.273.185,1.27.147,1.268.108,1.258.07,1.253.031,1.249-.007,1.231-.046,1.225-.084,1.209-.123,1.2-.161,1.182-.2,1.166-.237,1.147-.275,1.129-.312,1.1-.349,1.086-.386,1.064-.422,1.037-.458,1.013-.492.986-.527.961-.561.928-.595.9-.627.87-.659.837-.69.806-.721.77-.75.738-.779.7-.807.67-.834.625-1.839,1.358-2.642,1.946-2.641,1.95-2.642,1.951-2.642,1.952-2.642,1.945-2.641,1.95-2.642,1.951-2.642,1.952-2.641,1.945-2.642,1.95-2.642,1.951-2.641,1.952-2.641,1.944-2.642,1.95-2.642,1.952-2.642,1.951-2.642,1.945-2.641,1.951-2.642,1.951-2.642,1.952-.861.591-.885.554-.91.511-.933.476-.955.438-.976.392-1,.353-1.015.312-1.032.271-1.048.229-1.064.187-1.077.142-1.091.1-1.1.06-1.112.015-1.122-.029-1.129-.075-1.136-.111-1.141-.157-1.145-.2-1.147-.242-1.149-.283"
                  transform="translate(-1556.641 -4576.277)"/>
        </g>
        <g transform="translate(1466.891 4298.685)">
            <path class="a"
                  d="M2047.052,4794.76l.146.355.166.353.184.344.2.336.218.327.234.316.249.3.264.288.276.276.288.257.3.242.309.225.316.2.323.185.328.164.333.143.335.121.336.1,1.7.443,3.15.818,3.151.82,3.151.818,3.151.821,3.152.817,3.15.818.336.077.335.053.333.03.329.006.323-.017.316-.04.307-.062.3-.087.288-.107.277-.131.262-.151.25-.173.235-.2.218-.213.2-.231.184-.248.166-.266.146-.282.126-.295.106-.308.085-.321.064-.332.043-.339.022-.349v-.355l-.022-.359-.043-.361-.064-.365-.085-.365-.106-.364-.126-.361-.146-.358-.166-.351-.184-.344-.2-.337-.218-.326-.235-.317-.25-.3-.262-.288-.277-.275-.288-.258-.3-.243-.307-.223-.316-.2-.323-.185-.329-.164-.333-.143-.335-.122-.336-.1-1.7-.443-3.151-.819-3.151-.819-3.151-.818-3.151-.82-3.151-.819-3.151-.819-.336-.076-.335-.054-.333-.029-.328-.007-.323.018-.316.04-.309.062-.3.086-.288.11-.276.13-.264.154-.249.171-.234.195-.218.211-.2.234-.184.248-.166.266-.146.283-.126.3-.106.307-.085.32-.064.332-.043.339-.022.348v.354l.022.361.043.361.064.365.085.365.106.364.126.362"
                  transform="translate(-1980.543 -4665.674)"/>
            <path class="a"
                  d="M2072.737,4794.109l.323.1.322.116.32.138.316.158.31.177.3.2.3.215.287.232.278.249.265.263.253.278.24.292.225.3.21.313.194.323.177.332.159.337.141.343.121.348.1.349.081.351.062.35.042.349.021.346v.339l-.021.334-.042.327-.062.319-.081.307-.1.3-.121.284-.141.271-.159.255-.177.24-.194.222-.21.2-.225.186-.24.167-.253.146-.265.125-.278.1-.287.083-.3.061-.3.038-.31.017-.316,0-.32-.029-.322-.052-.323-.074-1.7-.441-3.152-.819-3.151-.82-3.151-.818-3.151-.818-3.151-.82-3.151-.819-.323-.094-.322-.116-.32-.139-.315-.157-.311-.178-.3-.2-.3-.215-.287-.232-.277-.249-.266-.263-.253-.276-.239-.293-.226-.3-.209-.314-.194-.322-.176-.332-.159-.338-.141-.342-.121-.348-.1-.35-.082-.35-.062-.351-.042-.347-.021-.347v-.34l.021-.334.042-.328.062-.317.082-.308.1-.3.121-.284.141-.271.159-.255.176-.24.194-.221.209-.207.226-.184.239-.167.253-.147.266-.125.277-.1.287-.083.3-.059.3-.04.311-.017.315.006.32.028.322.052.323.074,1.7.442,3.15.819,3.151.819,3.152.82,3.151.817,3.151.819,3.151.819"
                  transform="translate(-1980.812 -4665.967)"/>
            <path class="b"
                  d="M1974.265,4512.137l.23-.166.1-.066.1-.056.107-.05.111-.039.116-.033.119-.024.122-.015.124,0,.126,0,.128.011.129.021.129.028.833.219,1.225.317.058.015.953.248.038.01h0l.13.033.019.005h0l.149.039h0l.147.039h0l.144.036,0,0,.14.037h.006l.134.035.01,0,.14.038.5.129.085.022.079.021.052.014.022,0,.032.007.036.01.014,0,.047.012,0,0,.04.01.02.006.02,0,.037.009h0l.036.01.016,0,.018,0,.032.009h0l.03.008.019,0,.011,0h0l.026.006h0l.018.006.008,0h0l.007,0h.01v0h0l13.9,3.61,3.15.82,3.151.818,3.151.819,3.151.819,3.151.82,3.151.819,3.151.817,3.151.821,3.151.818,3.152.821,3.15.817,3.151.82,3.151.819,3.151.82,3.152.818,3.151.82,3.151.819,3.151.819,3.15.819,3.152.819,3.15.818,3.151.819,3.151.82,3.151.819,3.152.817,3.151.821,3.151.818,3.151.819,3.151.819,3.151.819,3.151.819,3.151.82,3.151.817,3.151.821,3.151.818,3.151.82,3.151.818,3.151.819,3.151.819"
                  transform="translate(-1939.606 -4511.685)"/>
            <path class="b"
                  d="M2013.535,4681.329l.021-.014.262-.176.2-.135.511-.284.536-.244.557-.2.577-.16.595-.115.609-.072.622-.029.631.018.64.059.644.1.324.073.319.071,0,0,.03.008.544.141.081.021.544.143,3.035.789,3.151.819,3.355.874,3.151.817,3.151.82,3.152.818,3.151.82,3.151.818,3.151.819,3.151.819,3.151.819,3.152.818,3.151.819.164.049.1.03.382.11.154.056.49.176.145.062.112.049.382.163.137.067.117.057.377.188.13.073.12.068.372.211.122.077.123.078.364.232.116.083.478.344.11.086.124.1.343.273.1.091.123.11.33.291.1.095.122.118.315.309.093.1.119.128.3.322.087.1.116.137.282.336.082.108.376.492.076.113.107.155.244.354.071.115.1.164.224.363.066.118.095.173.2.366.06.124.089.179.181.37.054.126.081.187.159.369.049.131.208.56.043.136.063.2.114.361.037.14.053.207.091.354.03.146.042.212.069.345.021.149.032.217.048.332.014.157.048.536.005.164.005.223.009.3v44.434l-.011.37-.009.306-.027.292-.009.1-.025.273-.032.205-.009.051-.061.39-.023.1-.011.047-.108.479-.181.607-.219.583-.257.558-.294.53-.33.5-.364.469-.4.434-.428.4-.246.2-.176.139-.036.029-.485.323-.511.286-.536.243-.557.2-.577.158-.594.116-.609.073-.622.028-.631-.016-.64-.06-.644-.1-.647-.146-1.288-.333-3.151-.82-3.15-.82-3.151-.819-3.151-.819-3.151-.818-3.152-.818-3.151-.82-3.151-.818-3.151-.818-3.15-.821-3.152-.819-3.151-.818-3.151-.82-.647-.189-.645-.231-.639-.272-.632-.312-.621-.352-.609-.389-.594-.425-.576-.458-.557-.493-.535-.521-.512-.55-.486-.576-.458-.6-.428-.622-.4-.641-.364-.658-.33-.672-.294-.683-.257-.691-.219-.7-.18-.7-.142-.7-.1-.7-.06-.7-.021-.684v-44.433l.021-.675.06-.664.1-.646.142-.626.18-.608.219-.583.257-.558.294-.532.33-.5.364-.468.4-.435.428-.4.458-.361"
                  transform="translate(-1959.988 -4604.457)"/>
            <path class="b"
                  d="M2053.513,4578.618l-3.15-.819-3.151-.819-3.151-.818-3.151-.82-3.151-.82-3.152-.818-3.151-.819-3.151-.818-3.151-.819-3.151-.82-3.151-.819-3.151-.819-3.151-.819-3.15-.821-3.151-.817-3.151-.819-3.151-.819-3.152-.819-3.151-.82-3.151-.819-.611-.158-3.152-.819-3.15-.82-3.152-.819-3.151-.818-3.151-.819-3.151-.819-.39-.1-3.151-.818-3.151-.82-3.151-.819-3.151-.819-3.151-.819-3.151-.818-3.151-.817-3.151-.821-3.151-.819-3.151-.818-3.151-.82-2.7-.7-3.151-.818-3.151-.819-3.152-.821-.5-.13-3.152-.819-3.151-.819-3.151-.818-1.078-.281-3.151-.818-3.151-.82-2.84-.738-1.9-.495-3.151-.817-3.151-.82-.961-.249"
                  transform="translate(-1894.426 -4526.163)"/>
            <path class="b"
                  d="M1904.632,4520.248l1.482-1.068,2.642-1.9,2.642-1.9.065-.043.071-.042.077-.04.083-.039.088-.034.093-.032.1-.031.1-.028.105-.024.108-.022.112-.02.114-.016.116-.014.118-.009.308-.021,3.248-.223,3.248-.222,6.1-.43h.013l.017,0h.009"
                  transform="translate(-1900.201 -4513.042)"/>
            <path class="b"
                  d="M1894.426,4677.407V4531.736l.009-.053.016-.055.024-.053.031-.052.038-.049.045-.049.052-.047.058-.047,4.158-3.047"
                  transform="translate(-1894.426 -4521.079)"/>
            <path class="b" d="M1953.432,4513.312l2.113-.145,3.249-.222,3.248-.223h.036"
                  transform="translate(-1927.817 -4512.271)"/>
        </g>
        <g transform="translate(1159.339 4537.716)">
            <path class="b"
                  d="M1263.459,4582.1l.031-1.347.03-3.256v-.026l.026-.511.005-.069.01-.071.1-.507.015-.069.02-.066.179-.5.024-.063.029-.064.253-.5.034-.059.037-.058.325-.487.041-.052.4-.474.043-.049.466-.459.045-.044.532-.446.048-.039.595-.43.049-.032.656-.41.05-.028.714-.389.77-.369.047-.02.821-.344.87-.323.917-.3.038-.011.955-.269.994-.242,1.028-.213,1.057-.185.024,0,1.078-.154,1.1-.123,1.115-.092,1.127-.06,1.134-.028,1.135,0,1.133.035,1.124.065,1.113.1,1.1.129,1.073.159.025,0,1.052.189,1.021.219.987.246.947.277.039.011.156.053"
                  transform="translate(-1226.942 -4568.861)"/>
            <path class="b"
                  d="M1291.975,4572.291h0l0,0h0l-.007.006h0l0,0c8.528,2.93,8.005,6.139,8.005,6.139v12.119l.014.21-.04.485,0,.033-.068.293-.052.222-.068.178-.128.333-.015.03-.258.475-.348.5-.421.484-.493.473-.15.121-.005,0-.408.331-.225.157-.193.135-.212.149-.695.421-.757.4-.635.3-.18.083-.7.288-.166.069-.922.33-.286.089-.12.039-.564.176-.927.253-.085.022-1.052.248-1.086.216-1.117.187-.852.115-.291.04-1.163.122-1.179.088-1.191.056-.765.015-.345.005-.086,0-.325,0-.872-.007-.478-.019-.714-.027-1.184-.078-1.169-.11-1.15-.145-1.1-.171-.027,0-1.1-.207-1.063-.238-1.026-.265-.984-.3-.017-.006-.722-.248-.169-.058-.029-.011-.639-.25-.139-.054-.109-.043-.834-.371-.776-.395-.326-.188-.389-.226-.469-.312-.154-.1-.029-.02-.585-.451-.516-.466-.445-.481v0l-.371-.49-.3-.5-.187-.428-.035-.083-.145-.513-.068-.517,0-.271.005-.241v-.006l.088-.517.03-.094"
                  transform="translate(-1226.73 -4570.801)"/>
            <path class="a"
                  d="M1253.37,4749.731l.324.1.26.094.062.022.319.137.315.156.3.176.006,0,.3.2.161.116.135.1.148.121.138.112.254.229.022.019.266.263.252.278h0l.239.29.1.138.124.168.116.171.094.141.192.32,0,0,.177.331.061.129.1.209.14.342,0,.009.119.338.03.1.072.245.082.349.007.043.046.256.008.052.042.349.021.344v.34l-.015.24-.006.1-.029.229-.012.1-.062.319-.014.053-.057.216-.01.039-.081.232-.022.064-.121.282-.007.014-.024.046-.109.21-.023.037-.1.163-.035.056-.152.206-.025.034-.194.221-.21.206-.225.185-.239.167-.253.146-.266.127-.2.074-.028.01-.048.019-.287.084-.25.05-.046.009-.161.021-.135.017-.009,0-.251.012-.06,0-.216,0-.1,0-.132-.012-.187-.018-.323-.05-.21-.048-.114-.025-.4-.1-.115-.031-1.109-.288-.288-.075-1.067-.277-.086-.023-1.259-.327-.157-.041-1.094-.283-.3-.08-1.269-.33-.049-.011-1.1-.288-.536-.138-1.215-.316-.036-.009-1.042-.272-.784-.2-1.113-.289-.093-.025-.94-.245-1.044-.27-1.011-.263-.121-.032-.84-.219-1.315-.342-.913-.237-.117-.03-.746-.194-.453-.118-.323-.1-.322-.116-.319-.136-.052-.028-.264-.132-.31-.176-.043-.028-.087-.057-.174-.111-.278-.2-.018-.014-.287-.233-.277-.249-.265-.263-.2-.215-.057-.062-.24-.29-.043-.058-.113-.152-.069-.1-.174-.259-.036-.054-.194-.322-.176-.332-.159-.337-.119-.291-.022-.053-.121-.348,0-.013-.1-.336-.007-.026-.075-.325,0-.015-.059-.335-.041-.348-.021-.346v-.34l.021-.334.01-.083.031-.244.031-.161.031-.157.082-.309.1-.3.1-.244.018-.041.141-.27.032-.052.126-.2.177-.24.194-.223.21-.2.225-.187.24-.166.253-.148.265-.125.277-.1.287-.083.092-.02.2-.042.063-.008.241-.03.31-.016.316.006.319.029.322.051.261.059.062.015.224.059,1.429.371.223.057,1.5.391.384.1,1.129.293.322.083,1.558.406.495.128.83.215.43.113,1.573.409.614.158.539.14.547.143,1.551.4.739.192.259.067.67.176,1.491.386.86.223.009,0,.789.2,1.4.363.741.192.258.067.048.013"
                  transform="translate(-1206.714 -4668.092)"/>
            <path class="b"
                  d="M1215.856,4599.349l-1.294.932-2.642,1.9-2.641,1.9-2.642,1.9-2.642,1.9-2.642,1.9-.2.137-.209.14-.22.147-.23.15-.24.154-.249.158-.256.161-.262.163-.269.167-.154.1-.119.072-.279.171-.245.151-.036.022-.284.174-.3.186-.271.167-.341.209-.24.147-.361.226-.223.138-.542.34-.044.029-.536.341-.051.032-.521.338-.063.041-.505.334-.075.05-.493.333-.081.055-.493.342-.074.051-.093.066-.467.331-.552.4-.543.407-.533.411-.522.417-.511.421-.5.425-.485.429-.471.432-.455.436-.439.437-.422.44-.4.44-.385.44-.363.439-.341.438-1.212,1.743-1.085,1.851-.955,1.953-.821,2.048-.682,2.132-.543,2.209-.4,2.28-.255,2.337-.111,2.388.035,2.429.181,2.459.325,2.479.469,2.489.611,2.492.75,2.482.887,2.463,1.019,2.435,1.147,2.4,1.271,2.347,1.39,2.289,1.5,2.223,1.61,2.146,1.711,2.063,1.805,1.969,1.891,1.868,1.972,1.76,2.042,1.646,2.1,1.521,2.16,1.4,2.206,1.261,2.243,1.124,2.27.98,2.29.833,2.3.682"
                  transform="translate(-1179.339 -4586.113)"/>
            <path class="b" d="M1262.711,4806.333" transform="translate(-1226.519 -4703.246)"/>
            <path class="b" d="M1262.711,4806.333" transform="translate(-1226.519 -4703.246)"/>
            <path class="b" d="M1263.3,4806.487" transform="translate(-1226.854 -4703.332)"/>
            <path class="b"
                  d="M1263.322,4695.826l2.3.513,2.29.358,2.27.2,2.243.044,2.206-.115,2.159-.273,2.1-.429,2.042-.585,1.972-.734,1.891-.886,1.806-1.03,1.711-1.172.624-.509.219-.177.767-.624.693-.663.411-.4.4-.382.649-.731.565-.637.177-.2.591-.782.68-.9v0l.282-.442.009-.012.029-.047.09-.142.032-.051.045-.067.043-.069.068-.106.213-.333.043-.069.078-.121.185-.291.029-.046.108-.2.153-.285.013-.026.073-.136.126-.235.065-.12.406-.759.039-.073.037-.067.006-.014.182-.411.006-.015.222-.5.157-.355.067-.151.026-.06.2-.441.024-.052.253-.706.078-.22.029-.081.024-.066.085-.236.109-.3.172-.479.172-.614.04-.142.069-.244.021-.079.033-.117.039-.14.147-.52.09-.318.015-.073.057-.276.029-.138.032-.151.287-1.374.049-.233.016-.118.019-.133.007-.051.062-.44v-.008l.029-.21.087-.613.013-.1v-.029h0l0-.035,0-.015,0-.016v-.01l.006-.046,0-.029,0-.036.014-.1.006-.047.015-.109.007-.054,0-.022.007-.052v-.084l0-.027v-.025l0-.046,0-.028,0-.055.142-1.857.01-.133.012-.15.006-.428.009-.6,0-.258.006-.432h0v0h0v-.018h0v-.006h0v-.029h0v-.485l0-.151-.009-.2,0-.1v-.013l-.014-.307v-.011l-.007-.151-.013-.3-.024-.531,0-.095,0-.093v-.05l0-.1v-.027l0-.093v-.027l0-.095,0-.1v0l0-.071v-.009l0-.053v-.027l-.015-.147,0-.029,0-.035,0-.039-.007-.056,0-.03,0-.018-.011-.106,0-.04v-.006l-.015-.141v-.006l0-.048v-.017l-.006-.052v-.014l0-.049,0-.021,0-.021,0-.022,0-.02,0-.011v-.012l-.007-.075,0-.027,0-.035,0-.036h0v-.022l0-.021v-.014l-.009-.078,0-.03-.01-.092,0-.027v-.016l-.006-.059v-.015l0-.023-.009-.08h0l-.005-.052-.01-.09-.007-.073v-.014l0-.033v0l-.011-.107-.021-.213-.009-.075-.013-.115-.011-.107-.006-.038-.018-.11-.051-.314-.017-.111-.024-.149-.05-.311-.005-.029-.032-.2-.019-.117-.039-.246-.019-.116-.024-.146-.021-.133-.007-.042-.015-.088v0l-.052-.331-.27-1.239-.062-.285-.025-.114-.186-.854-.049-.178-.04-.147,0-.015-.038-.139-.23-.841-.006-.024-.023-.081-.01-.035-.017-.061v0l0-.007v0l-.021-.077,0-.01-.013-.048-.01-.037,0-.017,0-.012-.012-.045,0-.011,0-.012-.016-.06-.016-.061,0-.011-.017-.062,0-.012-.029-.107,0-.015,0-.013-.032-.114v-.011l-.028-.1-.032-.116h0l-.042-.127-.022-.066-.054-.163-.083-.251-.118-.354-.01-.03-.017-.051-.011-.033v0l-.035-.105-.047-.144-.016-.047-.02-.061-.009-.024-.065-.2-.015-.043-.023-.069-.037-.112-.063-.191-.115-.348-.018-.054-.1-.247-.051-.132-.065-.168-.01-.025-.024-.061-.136-.348-.079-.2-.019-.048-.041-.1-.058-.15-.1-.254-.094-.24-.084-.216h0l-.032-.083-.066-.168,0-.012-.134-.3-.156-.348-.043-.1-.079-.175-.092-.206v0l-.021-.048-.024-.054-.054-.121-.106-.237,0-.011-.049-.108-.091-.2-.037-.082-.006-.014,0-.006v0h0l-.01-.023-.011-.024-.031-.07-.1-.215-.026-.058-.292-.57-.04-.078-.075-.146-.053-.1-.04-.08-.034-.065-.039-.076-.012-.023-.022-.043-.014-.028-.066-.127h0l-.089-.176-.063-.122-.006-.014v0l-.058-.111-.023-.047-.036-.07,0-.009-.155-.3-.038-.074-.052-.1-.123-.23-.094-.177-.109-.205-.013-.023-.032-.062-.06-.116h0l-.082-.157-.053-.1-.081-.157-.1-.193-.022-.045-.067-.132-.041-.082-.085-.167-.082-.167-.013-.025-.129-.264-.047-.1-.005-.01-.03-.062-.073-.152-.034-.07h0l-.107-.224-.005-.011-.056-.117-.025-.052-.13-.278-.047-.1-.1-.213-.016-.035-.017-.036-.057-.127-.149-.331-.056-.121-.006-.013-.115-.258-.01-.022h0l-.1-.226-.053-.12-.007-.017-.053-.122-.114-.266-.071-.165-.016-.038-.009-.018-.072-.173-.127-.3-.061-.146v0l-.085-.208-.074-.184h0l-.013-.03-.053-.132-.027-.064-.1-.247-.053-.134-.061-.155-.019-.048v0l-.011-.028-.078-.205-.018-.048-.064-.169-.037-.1-.035-.091-.168-.46-.042-.117h0l-.01-.029-.022-.062-.013-.035-.139-.4-.01-.034-.025-.069-.084-.255-.052-.157-.038-.118-.011-.032-.01-.032-.017-.055-.013-.04-.152-.492-.039-.136-.041-.144h0l-.044-.152-.043-.148-.011-.041-.034-.13-.107-.4-.022-.095-.006-.024-.019-.081-.031-.126-.038-.161-.019-.077-.046-.223-.041-.2-.028-.134-.031-.187h0l-.008-.042-.01-.063-.019-.108-.011-.066-.013-.077-.006-.047-.062-.485v0l-.007-.093-.01-.134,0-.035-.02-.258v-.1l0-.11-.005-.3,0-.094,0-.088v-.073l0-.033v-.018l.006-.069,0-.053,0-.058,0-.017,0-.015.009-.069.006-.052,0-.032,0-.016v-.009l0-.024.01-.055.014-.076,0-.013,0-.011.013-.074.053-.223.02-.065.044-.149.043-.115.034-.092.055-.123.035-.075.009-.02.027-.052.006-.012v0l.01-.018,0,0,.046-.086.062-.1,0,0,.01-.016.041-.064.052-.062.021-.026.2-.24.156-.148,1-.717,2.641-1.9.223-.16.263-.19.087-.062.316-.227.286-.207.01-.008.075-.053.141-.1.247-.18.009,0,.2-.145.174-.127.286-.2.119-.088.1-.074.062-.044.035-.027.428-.308.307-.222,1.07-.772.779-.56.292-.21.228-.165,1.615-1.165,1.806-1.3.315-.226.053-.039.056-.04.325-.235.257-.185.083-.06.062-.045.025-.019.168-.12.372-.27.209-.149.187-.135.078-.056.17-.122.1-.072.064-.045.132-.095.092-.067h0l.133-.1.09-.064.281-.2v0l.112-.08.053-.039.282-.2.182-.131.266-.192.033-.024.3-.217.241-.173.606-.436.053-.041.058-.041.012-.008.048-.034.011-.008.01-.009.041-.027.047-.036.006,0,.01-.008.063-.045.132-.1.056-.041.255-.184.1-.069.044-.031.175-.125.131-.1.083-.061.107-.076.035-.024.1-.07.029-.021.081-.059.086-.062.1-.075.057-.042.017-.012.011-.008.115-.083.035-.025.214-.154.1-.068.041-.031.081-.058.04-.028h0l.05-.036.063-.044.032-.023,0,0,.1-.07.025-.018.116-.083.027-.02.03-.021.078-.058.032-.021.078-.058.022-.015.037-.027.09-.064.08-.059.036-.025.007,0,.071-.052.046-.033.017-.012.044-.033.049-.034.052-.037.025-.017.025-.02.031-.011.041-.014.012,0,.046-.017.037-.013h.005l.045-.016h.01l.009,0,.038,0h0l.053,0h.111l.058,0,.046,0h0l.012,0,.059.006.019,0,.037.006h0l.061.012.061.016.124.033.088.028.01,0,.026.009.035.014.024.009.021.008.043.015.123.051.044.021.021.009.058.026.078.038.033.017.005,0h0l.122.063.026.015.011.006.057.031.027.016.063.036.008,0h0l.143.086.007,0,.015.01.12.078.005,0,.072.047.036.024.019.014.017.014.124.088,0,0,.066.047.193.15h0l.03.024.04.033.054.046.016.013.032.027.076.064.126.115.085.077.2.2.064.067.013.016.118.124.247.284.03.036.017.019.053.063.09.1.053.063.13.149.058.066.5.578.077.089.224.257.071.082.039.047.055.063.149.172.11.142.013.018.072.091.223.285.116.147,0,0,.07.089.049.064.037.047.028.036.023.029.007.01.013.017.023.028.028.037,0,0,.076.1.01.014.018.024.056.072.017.021.005.006.068.088.024.03.059.074.013.019.1.127.037.047.027.035.041.053.042.053.059.075.006.009.047.06.064.083.052.065.051.065.01.016.052.072.057.08.055.08.055.076.058.082.053.076.025.037.033.047.053.074.056.081.055.079.058.084.054.074.032.047.025.035.054.075.017.026.092.131.052.074.056.08.02.027.029.042.057.082.044.063.059.084.039.057.062.089.034.047.064.09.029.04.065.092.023.033.035.05.01.015.009.012.012.02.016.025.043.069.02.029.011.017.063.1.006.011.063.1v0l.024.036.051.082.025.039.022.036.017.027.165.262.057.092,0,0,.157.248.119.189,0,0,.145.229.013.022.074.115.026.042.106.168.119.188.028.046.039.062.036.057.216.385h0l.052.092.3.534.022.038.071.126.034.062.164.294.033.058.1.171.072.127.109.193.139.248.032.057.161.325.087.175.084.169.075.151.051.1.1.207.024.047.016.031.1.2.083.166.061.125.169.339.092.184.013.024.1.191.023.054.013.027.053.121.075.174.087.2.015.033.031.071.056.129.07.159.054.124.185.425.034.078.017.038.1.233.013.03.015.036.2.449.03.069.006.013.007.018.022.057.262.7.155.416.031.081.075.2.057.153.068.184.012.034.042.11.089.236.033.089.076.2.02.054.111.354v0l.063.2v0l.066.207.069.22.005.017.043.141.083.261.075.236.011.035.111.354.083.265.019.059.007.023.008.028.043.136.031.12v0l.072.282.09.347.1.38.078.3.011.043.029.111.047.183.105.411.045.176.049.192.033.167.061.309.057.286.006.034,0,.019.07.354.029.148.011.053v0l.068.337.042.215.01.048.074.371.01.052.006.033.025.125.021.15.021.155.026.186.019.132.031.222.014.095v.009l0,.022.04.292.033.233.032.23.041.286.012.089.011.082.05.358.008.092.032.393,0,.028.022.263.009.126.016.2v.012l.023.276.029.358.018.228.006.078,0,.067.02.239.009.105,0,.058v.034l.006.308,0,.2v.118l0,.111.006.289v.094l0,.192v.02l0,.141v.191l0,.093,0,.167v.111l0,.119v.16l0,.139h0l0,.1-.009.226-.005.122h0v.04l0,.053v.03l0,.1h0l-.006.152-.006.143v.018h0v.042h0v.012l0,.091,0,.093-.013.3v.032l-.006.158v.043l0,.063v.009l-.013.323v.029l-.011.27-.008.082-.043.41-.006.063h0v0l0,.031-.024.229-.042.4h0l0,.03-.014.142-.008.068-.005.053-.017.172,0,.024h0l0,.038-.006.055-.006.053,0,.015h0l-.015.147h0v0l0,.025v.006l0,.02,0,.029h0l0,.036v.014h0l-.026.248-.027.155-.047.27-.037.216-.052.306-.044.25-.041.238-.047.273-.008.047-.023.13-.015.087,0,.018-.022.126-.015.088-.005.028-.008.042-.011.062-.554,2.265-.7,2.184-.846,2.094-.986,1.992-1.124,1.887-1.255,1.771-1.382,1.647-1.5,1.518-1.617,1.382"
                  transform="translate(-1226.865 -4592.671)"/>
            <path class="b"
                  d="M1350.2,4748.306l-2.914,2.1-2.641,1.905-2.641,1.905-2.641,1.9-2.64,1.9-2.641,1.905-2.641,1.905-2.641,1.9-2.64,1.906-2.641,1.9-2.641,1.9"
                  transform="translate(-1259.434 -4670.407)"/>
            <path class="b" d="M1262.711,4806.333l.258.067" transform="translate(-1226.519 -4703.246)"/>
            <path class="b" d="M1263.46,4599.349" transform="translate(-1226.943 -4586.113)"/>
            <path class="b" d="M1371.667,4612.447" transform="translate(-1288.177 -4593.525)"/>
            <line class="b" y1="6.161" x2="0.065" transform="translate(36.452 12.943)"/>
            <line class="b" x1="11.278" y1="3.219" transform="translate(73.232 15.058)"/>
        </g>
        <g transform="translate(1684.945 4377.097)">
            <g transform="translate(62.219 29.718)">
                <path class="b" d="M2685.237,4658.993h.02l.012,0h0" transform="translate(-2627.961 -4658.966)"/>
                <path class="b" d="M2722.76,4688.23l-.01,0-.009.009-.012.022"
                      transform="translate(-2649.176 -4675.51)"/>
                <path class="b" d="M2722.786,4687.979l0-.011-.005-.009,0-.013-.008-.009-.009-.009-.01-.009-.011-.009"
                      transform="translate(-2649.18 -4675.33)"/>
                <path class="b"
                      d="M2701.556,4671.551l.012.009.01.01.008.01.007.011.005.009.005.01,0,.011v-5.711a6.038,6.038,0,0,0-1.7-2.859,3.888,3.888,0,0,0-1.381-.627l-4.245-1.1-4.246-1.1-4.245-1.1-.309-.081-.176-.028"
                      transform="translate(-2628.002 -4658.974)"/>
                <path class="b"
                      d="M2610.417,4658.941l-.05-.006h-.026l-.263,0h-.038l-.269.024-.011,0h-.012l-.274.054-.011,0-.011,0-.278.08-.011,0-.012,0-.011,0-.28.109-.018.007-.282.137-.016.008-.283.166-.015.009-.288.195-3.56,2.563-3.558,2.564-3.559,2.563L2593.72,4670l-3.559,2.563-3.559,2.563-3.559,2.563-3.559,2.563-3.559,2.565-3.558,2.563-3.559,2.564-3.559,2.564-3.559,2.564-2.928,2.108-.186.14-.176.142-.007.007-.176.153-.175.162-.008.007-.174.171-.173.18-.007.008-.343.387-.006.006-.276.342,0,.007-.27.362-.266.383,0,.006-.259.4-.252.42,0,.006-.244.438-.237.454-.227.467-.217.484v0l-.207.5-.2.5-.185.516-.172.522-.161.529-.146.536-.135.537-.127.57-.111.57-.07.408-.061.4-.053.4-.045.4v0l-.035.4-.028.393-.018.388-.01.379v.01l-.012,1.209"
                      transform="translate(-2553.295 -4658.931)"/>
                <path class="b"
                      d="M2682.518,4659.157l-.02.006-.028.008-.039.011-.017,0-.055.016h0l-.01,0,.01,0h0l.052-.016.013,0,.039-.009.022-.008.027-.008.03-.01.017,0,.011,0,.057-.016"
                      transform="translate(-2626.324 -4659.041)"/>
                <path class="b"
                      d="M2683,4659.019l.034-.007.011,0h0l.061-.014.019,0,.042-.008.028-.005.027-.006.03,0,.016,0h0l.067,0,.017,0,.035,0h.005l.031,0h.009l.025,0h.01l.02,0h.01l.015,0h.022l.009,0h.206l.02,0h.042l.063,0,.093.016H2684v0"
                      transform="translate(-2626.695 -4658.933)"/>
                <path class="b" d="M2683.081,4659.059h-.006l-.023,0-.065.014h0l-.017,0-.032.006-.046.012"
                      transform="translate(-2626.631 -4659.003)"/>
                <path class="b"
                      d="M2567.178,4780.542l-.016.008-.017.006-.02.006-.019.007-.021.006-.022,0-.022.005-.022,0-.023,0-.024,0-.024,0h-.122l-.024,0-.024,0h-.022l-.006,0-.016,0-.021,0-.021,0-.162-.042-1.137-.3-4.245-1.1-3.638-.946-2.356-.612-.553-.144-.051-.014-.286-.074-.761-.2-.021-.006-.02-.006-.019-.006-.018-.008-.016-.007-.016-.008-.015-.008-.013-.009-.011-.008-.011-.01-.008-.011-.009-.011-.005-.009,0-.01,0-.011V4777l-.017-1.654"
                      transform="translate(-2553.294 -4724.812)"/>
                <path class="b"
                      d="M2645.06,4688.094v.022l0,.011-.005.009-.007.009-.009.011-.031.029-.9.648-.094.067-.236.168-3.571,2.574-.262.189-.059.041-.993.716-3.558,2.563-3.559,2.563-3.559,2.563-3.559,2.564-3.558,2.564-3.56,2.564-3.558,2.563-3.559,2.564-3.558,2.564-3.56,2.563-3.558,2.564-3.56,2.564-3.559,2.563-3.559,2.565-.058.043-.27.194-.052.036-3.31,2.385"
                      transform="translate(-2571.451 -4675.434)"/>
                <path class="b" d="M2553.332,4779.038v-.021l0-.011,0-.009.007-.012.008-.01.01-.022.009-.011.012.006"
                      transform="translate(-2553.315 -4726.844)"/>
                <path class="b" d="M2585.324,4787.243l-.014-.005-.015.009-.016.021"
                      transform="translate(-2571.395 -4731.54)"/>
                <path class="a" d="M2584.471,4719.562v-3.4s.458-8.606,5.492-12.68l49.586-35.475"
                      transform="translate(-2570.937 -4664.066)"/>
            </g>
            <g transform="translate(0 0)">
                <path class="a" d="M2430.374,4707.315v-.149l.017-.777.04-.791.066-.8.089-.814.113-.82.137-.824"
                      transform="translate(-2421.515 -4653.776)"/>
                <path class="b" d="M2554.42,4592.258l3.955,1.029,4.244,1.1,4.245,1.1,4.246,1.1,4.244,1.1,4.246,1.1"
                      transform="translate(-2491.712 -4591.482)"/>
                <path class="a"
                      d="M2477.429,4714.461l-.137.91-.114.9-.089.9-.049.666-.016.218-.041.872-.017.857-.017,3.88-.022,4.834v.366l0,.525,0,.278"
                      transform="translate(-2447.856 -4660.636)"/>
                <path class="a"
                      d="M2607.333,4607.389l-.087-.019-.007,0h-.011l-.082-.02-.036-.008-.062-.008-.064-.01-.039,0-.187-.028-.083-.011-.091-.016h-.033l-.1-.009h-.021l-.014,0-.223-.015-.007,0-.035,0-.11-.009h-.528l-.048,0-.088.008-.022,0-.087.008-.039,0-.01,0-.074.005h0l-.091.008-.024,0-.028,0-.023,0-.08.014-.088.015-.059.011-.054.009-.029,0-.13.023-.037.007-.082.023-.01,0-.011,0-.1.025-.042.011-.052.014-.058.019-.068.018-.063.017-.045.018-.033.012-.046.019-.023.009-.057.022-.044.017-.072.029-.03.011-.014,0-.007,0-.088.034-.054.029-.095.048h0l-.055.027-.092.048-.086.043-.057.029-.027.016-.081.05-.03.017-.028.018,0,0-.044.025-.055.039-.1.071h-.005l0,0-.028.019-.009.007"
                      transform="translate(-2519.033 -4599.95)"/>
                <path class="a"
                      d="M2544.768,4609.377l-.012.008-.1.07-.019.014-.041.031-.079.058-.135.1,0,0-.134.1-.147.1-.274.2-.279.2-.172.122-.286.209-.19.136-.293.213-.213.153-.232.166-.3.217-.3.22-.258.187-.59.423-.308.222-.306.221-.436.313-.2.144-.3.221-.354.255-2.5,1.8-3.558,2.564-.081.058-.147.106-.049.035-.393.285-.087.063-.047.033-.045.032-2.161,1.557-.007.005h0l-.008.006,0,0-.008.006,0,0-.008.006h0l-.009.007h0l-.008.006h0l-.008.006h0l-.008.006h0l-.009.005h0l-.008.005v0l-.007,0h0l-.006.006h0l-.006.006h0l-.006,0h0l-.008,0h0l-.006,0h0l-.006,0v0l0,0h0l0,0v0h0v0l-.005,0h0l0,0v0l0,0h0l0,0h0l0,0h0l-.388.28-1.233.888-.264.189-.256.186-.23.166-.646.465-3.559,2.563-3.559,2.564-1.271.917-3.559,2.563L2511,4633.7l-3.56,2.562-3.559,2.564-3.559,2.564"
                      transform="translate(-2461.102 -4601.171)"/>
                <path class="a"
                      d="M2496.4,4683.136h0l-.011.009-.075.06v0l-.2.162h0l-.067.053-.033.026-.061.06-.069.069-.009.006-.009.01-.11.108-.073.071-.021.021-.008.012-.012.014-.04.046-.035.041-.014.018-.034.041-.031.035-.045.055-.057.065-.038.044-.009.011-.032.046-.075.106-.021.032-.011.014-.063.088-.093.132,0,0-.011.02-.008.014-.047.083-.048.081-.007.01-.011.019-.059.1-.074.125-.008.017-.02.043-.085.172-.011.024,0,.006-.006.011-.009.02,0,.008,0,.006v0l-.085.173-.017.039-.119.288-.007.02-.006.014-.01.025-.007.017-.045.11-.023.065-.029.088-.083.243-.009.026-.011.031-.029.084-.025.086v0l0,.008-.027.1-.1.367-.014.058,0,.01-.018.069-.1.451h0l0,.022-.025.133-.066.347-.02.107-.031.207-.027.176-.035.233,0,.013-.024.2,0,.045v.018l-.046.381-.01.115-.037.414-.009.094,0,.04-.025.394-.005.076-.013.209,0,.068-.01.235-.011.237-.007.152,0,.125,0,.162-.009.353v.063l0,.313,0,.14v1.09l0,.358,0,.11v.239l0,.285,0,.1,0,.163,0,.119,0,.071v.072l.008.31,0,.224,0,.073v.062l.01.329v.068l.008.3v.083l0,.048v.18l0,.124.01.322v.044l0,.075.009.307,0,.111.007.224,0,.049.008.249,0,.129.013.335v.048l.012.377,0,.128.007.205,0,.054.006.239,0,.132.01.33v.129l.008.3,0,.075.006.235,0,.09,0,.146.005.248.005.214v.271l0,.181,0,.153v.719l0,.129v.97l.006,1.4.006,1.973.008,2.437.006,1.476v.553"
                      transform="translate(-2457.176 -4642.91)"/>
                <path class="a"
                      d="M2495.1,4689.075l.029-.087.086-.254.046-.133.023-.066.051-.129,0-.006.14-.338.017-.039.087-.177.018-.037,0-.007v0l.007-.012.092-.187.021-.041.008-.02"
                      transform="translate(-2458.146 -4645.401)"/>
                <path class="b"
                      d="M2409.981,4650.446v-.181l.059-4.385.058-4.387v-.011l.023-.563v-.006l.051-.571.079-.573v0l.106-.572.131-.574,0,0,.156-.574.181-.571.206-.568.226-.562.248-.557v0l.267-.548.287-.542.307-.535.322-.524.339-.517.352-.507h0l.4-.547.418-.539.432-.525.443-.512.674-.741.69-.711.7-.684.706-.655v0l.353-.314.353-.31.7-.6.685-.562,0,0,.336-.269.326-.259,0,0,.532-.413,0,0,.507-.383,0,0,.481-.356.455-.33,1.743-1.257,3.559-2.563,3.558-2.563,3.56-2.564,3.559-2.563,3.559-2.563,3.558-2.564,3.559-2.563,3.559-2.564,3.558-2.564,3.559-2.564,3.559-2.562,3.559-2.565.377-.268,0,0,.351-.244.005,0,.318-.212.005,0,.284-.179.007,0,.007,0,.252-.148.007,0,.007-.005.007,0,.221-.114.007,0,.007,0,.008,0,.192-.083.013,0,.014,0,.012,0,.014,0,.168-.048.008,0,.008,0,.008,0h.008l.009,0h.017l.146-.019h.094l.054.008,2.992.766"
                      transform="translate(-2409.975 -4590.472)"/>
                <path class="b" d="M2620.288,4609.419l.184.057.022.007h.006l.007,0,.045.017.082.031"
                      transform="translate(-2528.987 -4601.194)"/>
                <path class="b"
                      d="M2621.352,4609.783l.11.04.151.057.007,0,.005,0,.5.216.006,0,.007,0,.487.247,0,0,.1.057.285.166.091.052-.1-.056-.356-.206-.02-.01.017.007.079.046.383.222,0,0,.466.3,0,0,.006,0,.453.331,0,0,.437.359.005,0,.005,0,.422.387.009.007.4.41.382.437.007.009.36.46.007.009.336.483.31.506.006.011.282.527,0,.007.251.549,0,.006.177.454.157.464,0,.007.135.476,0,.008.112.488,0,.007.089.5.067.509v.006l.044.513.02.521v.156l.058,4.386.059,4.385"
                      transform="translate(-2529.588 -4601.399)"/>
                <path class="b" d="M2625.507,4611.862l-.136-.089-.015-.01h0l-.061-.041-.01-.006-.028-.02"
                      transform="translate(-2531.797 -4602.482)"/>
                <path class="b" d="M2624.372,4611.188l-.115-.068-.013-.006h0l-.051-.031-.006,0-.026-.013h0"
                      transform="translate(-2531.176 -4602.125)"/>
                <path class="b" d="M2623.218,4610.586l-.1-.053-.014-.006h0l-.027-.014h0l-.023-.013h0l-.01-.006"
                      transform="translate(-2530.544 -4601.802)"/>
                <path class="b" d="M2622.051,4610.06l-.089-.041-.015-.005h0l-.02-.009h0l-.017-.006h-.006"
                      transform="translate(-2529.9 -4601.52)"/>
                <path class="b"
                      d="M2621.9,4609.994l.007,0h0l.019.008h0l.024.011h0l.01,0h0l.036.017.022.009.028.012.02.007.013.006.029.012h0l.033.014h0l.037.017h0l.045.021.017.008.029.012.027.011.031.016.056.024"
                      transform="translate(-2529.9 -4601.52)"/>
                <path class="b"
                      d="M2620.752,4609.561l0,0h0l.011,0h0l.012,0,.008,0h0l.012,0h0l.008,0h0l0,0h0l.129.046.175.067v0h0l.005,0,.007,0,.006,0,.008,0,.01,0,.016.007.008,0,.02.008.01,0,.038.015-.2-.075"
                      transform="translate(-2529.249 -4601.273)"/>
                <path class="b"
                      d="M2625.255,4611.7l.029.02.011.007.062.04,0,0,.011.006.154.1.131.086.062.041-.071-.046-.11-.073"
                      transform="translate(-2531.798 -4602.482)"/>
                <path class="b"
                      d="M2624.156,4611.063h0l.027.014.008,0,.057.033h0l.006,0,.144.083.011.007.149.086.073.043-.1-.061-.086-.051"
                      transform="translate(-2531.176 -4602.125)"/>
                <path class="b"
                      d="M2622.579,4610.292l.2.088.01.005h0l.026.012,0,0,.033.017h0l.038.02.034.016.046.024.029.014.01.006.005,0,0,0,.044.023.073.037.1.052.026.014-.085-.046-.111-.054"
                      transform="translate(-2530.283 -4601.688)"/>
                <path class="b" d="M2620.87,4609.606l-.086-.031-.007,0h0l-.014,0h0l-.007,0h0l-.006,0"
                      transform="translate(-2529.248 -4601.273)"/>
                <path class="b" d="M2619.59,4609.2l.17.049.318.1h0l.006,0h.009l-.048-.012-.089-.03-.058-.017"
                      transform="translate(-2528.592 -4601.072)"/>
                <path class="b" d="M2619.689,4609.234l-.008,0-.085-.027h-.005"
                      transform="translate(-2528.592 -4601.072)"/>
                <path class="b" d="M2613.378,4607.612l.318.07" transform="translate(-2525.076 -4600.172)"/>
                <path class="b"
                      d="M2410.2,4733.809l-.017-.011-.01-.008-.017-.012-.008-.01-.015-.015-.008-.007-.015-.017-.013-.018-.007-.008-.012-.019,0-.01-.012-.02-.01-.021,0-.009-.008-.022-.007-.024,0-.009,0-.021,0-.024v-.043l-.055-4.093v-.012l0-.009,0-.013,0-.012.007-.009.008-.01"
                      transform="translate(-2409.967 -4669.046)"/>
                <path class="b"
                      d="M2498.952,4700.958l.134-.1,0,0,.017-.011.136-.1.039-.028.013-.009.044-.033.059-.042.049-.037.046-.031.047-.033.015-.01.06-.042.058-.043.008,0,.056-.043.017-.009.043-.032.059-.044h0l.055-.04.108-.078.076-.055.075-.054.072-.053.065-.047.321-.231.264-.189.266-.192.4-.289.036-.025.115-.083.036-.027.871-.627.664-.479.05-.036.341-.245.436-.313.587-.423.682-.492.03-.024.977-.7.7-.5,3.559-2.563,3.559-2.564,3.558-2.564.932-.671.272-.2.268-.192.263-.191.255-.184.246-.177.233-.167.218-.158.2-.145,3.559-2.563,3.559-2.563,3.559-2.564,3.56-2.564,3.558-2.564,3.559-2.564,3.613-2.6.083-.061,1.161-.836.222-.16.6-.433.236-.17.052-.039,1.082-.779.979-.7.2-.146.191-.137.4-.288.646-.466.1-.076.095-.068.139-.1.339-.244,1.133-.817.056-.04.061-.042.059-.043.064-.047.076-.054.056-.04.024-.017.068-.049.05-.036.008,0,.053-.04.056-.04h0l.095-.067.047-.034.027-.021.005,0,.017-.013.026-.018.022-.015.037-.026.012-.009.029-.021,0,0,.011-.008,1.931-1.391.021-.016,2.54-1.943.007,0,.017-.015.008-.007.015-.014.015-.018.009-.009.013-.017.006-.01.011-.02.005-.009.012-.019.01-.022,0-.009.008-.023.007-.022,0-.009.006-.023,0-.023,0-.011v-.036l.054-4.105"
                      transform="translate(-2460.323 -4626.055)"/>
                <path class="b"
                      d="M2450.789,4748.334l-.008-.014-.007-.017,0-.018-.005-.019,0-.02,0-.021,0-.022,0-.022v-1.2l-.161-.042-.16-.041-1-.262-1.665-.434-.075-.019-4.245-1.1-2.471-.644-2.5-.649-1.573-.409-4.246-1.1-.026-.008-.106-.027-.16-.042-.227-.058-.222-.058-.522-.136-.024-.007-1.066-.277.006,1.174v.023l-.012.019v.021l.018.023,0,.021.005.018,0,.018.007.017.007.015.008.014.008.012.009.012"
                      transform="translate(-2421.47 -4676.033)"/>
                <path class="b" d="M2414.131,4740.56l-1.848-.519,7.854,2.214"
                      transform="translate(-2411.278 -4675.113)"/>
                <path class="a" d="M2430.277,4724.637v-.3l0-.985v-.184l.022-5.391.016-3.971"
                      transform="translate(-2421.46 -4660.265)"/>
                <path class="b" d="M2613.378,4607.612l.318.07,2.017.527.36.092.007,0,.086.027.557.182"
                      transform="translate(-2525.076 -4600.172)"/>
                <line class="b" x2="8.614" y2="2.47" transform="translate(29.815 72.545)"/>
            </g>
        </g>
        <g transform="translate(1829.651 4512.342)">
            <path class="a" d="M2848.562,4719.4v-.151l.017-.777.041-.79.065-.8.09-.813.114-.821.136-.824"
                  transform="translate(-2839.703 -4665.857)"/>
            <path class="b" d="M2972.608,4604.34l3.953,1.029,4.246,1.1,4.245,1.1,4.244,1.1,4.245,1.1,4.245,1.1"
                  transform="translate(-2909.9 -4603.564)"/>
            <path class="a"
                  d="M2895.615,4726.543l-.137.909-.113.9-.089.9-.05.665-.016.219-.04.873-.017.856-.018,3.88-.021,4.835,0,.365v.805"
                  transform="translate(-2866.043 -4672.718)"/>
            <path class="a"
                  d="M2962.955,4621.458l-.011.007-.1.073-.019.014-.042.029-.079.057-.135.1h0l-.134.1-.147.1-.274.2-.279.2-.171.122-.287.208-.191.136-.294.211-.212.155-.232.166-.3.217-.3.219-.258.187-.59.425-.307.221-.306.221-.436.313-.2.146-.3.219-.354.255-2.5,1.8-3.559,2.563-.08.058-.147.106-.05.035-.393.284-.087.063-.047.034-.045.031-2.16,1.557-.008.005h0l-.008.007h0l-.008.006,0,0-.008.006h0l-.009.006,0,0-.009.006h0l-.009.007h0l-.008.006h0l-.008.005v0l-.009.005h0l-.007.007h0l-.007.006h0l-.006.005h0l-.006,0h0l-.007,0h0l-.007.005h0l0,0h0l-.005,0h0l-.005,0h0l-.005,0h0l0,0v0h-.008l0,0h-.005l-.387.278-1.233.888-.264.19-.256.185-.229.166-.646.465-3.559,2.563-3.559,2.564-1.271.916-3.559,2.564-3.559,2.564-3.56,2.563-3.558,2.563-3.558,2.564"
                  transform="translate(-2879.289 -4613.253)"/>
            <path class="a"
                  d="M2914.583,4695.218v0l-.012.007-.076.06v0l-.2.163h0l-.067.054-.034.026-.06.059-.07.068-.008.007-.01.009-.11.11-.073.071-.021.02-.01.012-.011.014-.04.047-.034.041-.015.017-.034.041-.031.037-.046.053-.056.068-.038.044-.008.01-.032.046-.075.107-.022.03-.012.017-.063.087-.093.132v0l-.011.019-.009.014-.047.082-.047.081-.008.012-.011.018-.058.1-.074.125-.009.017-.021.042-.084.171-.012.025,0,.007-.007.011-.008.018-.005.009v.01l-.085.173-.016.039-.118.287-.009.019,0,.014-.01.025-.006.017-.046.111-.023.065-.031.09-.083.242-.008.024-.011.033-.03.085-.024.087v0l0,.007-.029.1-.1.368-.014.056,0,.013-.016.066-.1.451h0l0,.022-.024.133-.067.346-.02.106-.032.208-.027.176-.035.234,0,.012-.023.2-.005.046v.018l-.046.381-.01.115-.038.414-.008.093,0,.042-.025.394-.005.073-.013.211,0,.068-.01.233-.011.239-.007.15,0,.126-.005.161-.01.354v.063l0,.313v1.228l0,.359v.35l.005.286,0,.1,0,.163,0,.119,0,.071v.073l.009.31,0,.221,0,.073v.063l.01.328v.069l.009.3v.312l0,.124.01.322v.011l0,.033,0,.076.01.307,0,.111.007.223v.049l.008.248,0,.13.012.334v.048l.011.377,0,.128.007.206,0,.053.006.24,0,.132.01.329v.05l0,.079.008.3,0,.074.006.237,0,.089,0,.146,0,.248.005.215v.271l0,.182,0,.155,0,.145v.573l0,.129v.97l0,1.4.007,1.973.008,2.436.005,1.476v.494h0v0h0v.054"
                  transform="translate(-2875.363 -4654.992)"/>
            <path class="b"
                  d="M2828.167,4662.528l0-.181.058-4.385.059-4.385v-.012l.022-.563V4653l.052-.571.078-.574v0l.105-.571.132-.576v0l.157-.571.181-.571.2-.57.227-.562.247-.558v0l.267-.548.287-.541.306-.535.323-.525.338-.517.353-.508h0l.4-.546.418-.539.432-.526.443-.512.675-.74.69-.711.7-.683.707-.655v0l.352-.315.354-.31.7-.6.685-.562,0,0,.336-.27.327-.257,0,0,.533-.413,0,0,.507-.384,0,0,.482-.357.455-.331,1.743-1.256,3.56-2.563,3.558-2.564,3.559-2.563,3.559-2.564,3.559-2.564,3.558-2.562,3.559-2.564L2871,4614.2l3.559-2.566,3.559-2.563,3.558-2.564,3.559-2.563.377-.268.005,0,.35-.244.005,0,.318-.211,0,0,.285-.18.007-.005.006,0,.253-.147.006,0,.007,0,.007,0,.221-.115.007,0,.007,0,.009,0,.192-.081.013-.006.014,0,.013,0,.013,0,.168-.049.008,0,.009,0h.008l.008,0h.025l.146-.016.008,0h.071l.015,0,.054.008,2.992.764"
                  transform="translate(-2828.161 -4602.554)"/>
            <path class="b" d="M3038.475,4621.5l.184.057.022.006.007,0,.007,0,.045.018.08.03"
                  transform="translate(-2947.173 -4613.275)"/>
            <path class="b"
                  d="M3039.539,4621.864l.11.041.151.056.006,0,.005,0,.495.216.007,0,.006,0,.487.246,0,0,.1.057.285.166.09.052-.095-.056-.356-.206-.02-.009.017.009.079.044.383.223,0,0,.466.3.005,0,0,0,.454.33.005,0,.438.359.005,0,0,0,.424.386.007.008.4.409.383.436.009.009.359.46.007.01.335.484.309.5.007.011.281.529,0,.006.251.55,0,.006.178.453.157.466v.008l.135.476v.008l.114.488v.007l.09.495.067.509v.007l.042.513.02.521v.155l.059,4.385.059,4.386"
                  transform="translate(-2947.776 -4613.48)"/>
            <path class="b" d="M3043.693,4623.944l-.136-.09-.015-.009v0l-.062-.039-.01-.007-.028-.02"
                  transform="translate(-2949.984 -4614.564)"/>
            <path class="b" d="M3042.559,4623.269l-.116-.067-.013-.007h0l-.052-.031-.007,0-.025-.015h0"
                  transform="translate(-2949.363 -4614.206)"/>
            <path class="b" d="M3041.4,4622.667l-.1-.052-.014-.006h0l-.029-.014v0l-.023-.011h0l-.009-.005"
                  transform="translate(-2948.731 -4613.884)"/>
            <path class="b" d="M3040.237,4622.141l-.09-.041-.014-.005h0l-.02-.009h0l-.016-.006h0l-.005,0"
                  transform="translate(-2948.086 -4613.601)"/>
            <path class="b"
                  d="M3040.09,4622.076l.007,0h0l.02.009h0l.025.01h0l.01,0,0,0,.036.015.022.011.028.012.021.007.013.005.028.012,0,0h0l.033.016h0l.038.017h0l.045.02.016.008.03.012.027.013.03.015.056.024"
                  transform="translate(-2948.087 -4613.601)"/>
            <path class="b"
                  d="M3038.938,4621.642l.005,0h0l.012,0h0l.011,0,.009,0,0,0,.011,0h0l.008,0H3039l.13.047.175.067h0l.005,0,.006,0,.007,0,.008,0,.009,0,.017.006.008,0,.02.007.009,0,.037.015-.2-.075"
                  transform="translate(-2947.435 -4613.356)"/>
            <path class="b"
                  d="M3043.441,4623.778l.029.02.011.007.062.041h0l.012.008.155.1.131.086.061.041-.071-.047-.111-.074"
                  transform="translate(-2949.984 -4614.564)"/>
            <path class="b"
                  d="M3042.342,4623.145h0l.028.016.008,0,.056.033h0l.007,0,.143.083.011.007.149.086.073.043-.1-.06-.087-.051"
                  transform="translate(-2949.361 -4614.206)"/>
            <path class="b"
                  d="M3040.765,4622.374l.2.088.009,0,0,0,.026.013h0l.033.018h0l0,0,.038.019.033.017.046.023.03.013.011.006,0,0,0,0,.044.022.073.038.1.051.025.013-.085-.044-.112-.055"
                  transform="translate(-2948.469 -4613.771)"/>
            <path class="b" d="M3039.057,4621.688l-.085-.031-.009,0h0l-.012-.005h0l-.009,0h-.005"
                  transform="translate(-2947.435 -4613.355)"/>
            <path class="b" d="M3037.777,4621.284l.17.049.317.1h0l.006,0h.009l-.048-.014-.09-.028-.057-.018"
                  transform="translate(-2946.779 -4613.154)"/>
            <path class="b" d="M3037.876,4621.315l-.009,0-.085-.027h-.006" transform="translate(-2946.779 -4613.154)"/>
            <path class="b" d="M3031.566,4619.694l.318.069" transform="translate(-2943.264 -4612.254)"/>
            <path class="b"
                  d="M2828.391,4745.889l-.017-.01-.01-.005-.017-.014-.008-.01-.014-.014-.009-.006-.015-.018-.014-.018-.006-.009-.012-.019-.005-.009-.011-.019-.01-.022-.006-.01-.007-.022-.007-.024,0-.011,0-.022,0-.023v-.01l0-.023v-.011l-.054-4.092v-.021l0-.01,0-.012.007-.01.008-.009"
                  transform="translate(-2828.154 -4681.129)"/>
            <path class="b"
                  d="M2917.14,4713.038l.134-.1,0,0,.017-.011.136-.1.039-.028.013-.009.044-.032.059-.043.049-.036.045-.032.046-.035.015-.009.059-.043.058-.042.008-.006.055-.04.017-.011.043-.031.06-.044h0l.055-.039.108-.078.076-.055.075-.054.073-.053.065-.046.321-.231.264-.191.266-.193.4-.287.036-.027.115-.083.036-.024.872-.629.664-.478.05-.036.34-.245.437-.313.586-.423.683-.492.029-.023.977-.7.7-.5,3.559-2.564,3.558-2.564,3.559-2.562.932-.672.271-.194.269-.195.263-.19.255-.184.245-.179.233-.167.218-.157.2-.144,3.559-2.562,3.559-2.564,3.559-2.565,3.559-2.562,3.559-2.564,3.56-2.564,3.612-2.6.084-.062,1.16-.836.223-.159.6-.434.236-.17.052-.038,1.082-.779.978-.707.2-.144.191-.137.4-.29.645-.466.1-.074.1-.07.138-.1.339-.246,1.133-.816.057-.039.059-.044.06-.043.064-.045.077-.055.055-.04.023-.019.069-.049.049-.035.007,0,.054-.04.055-.041h0l.1-.067.046-.035.027-.02.006,0,.017-.013.026-.019.021-.015.038-.027.011-.008.03-.022h0l.01-.008,1.931-1.392.021-.015,2.54-1.943.007-.006.017-.013.008-.008.015-.014.016-.017.008-.009.013-.017.007-.01.011-.02.005-.01.011-.019.01-.021,0-.01.009-.022.007-.022,0-.01.005-.022,0-.022v-.014l0-.023v-.012l.055-4.1"
                  transform="translate(-2878.51 -4638.137)"/>
            <path class="b"
                  d="M2868.976,4760.417l-.009-.014-.007-.017,0-.018,0-.019,0-.02,0-.021,0-.022,0-.021v-.419l0-.386v-.392l-.161-.043-.159-.041-1-.263-1.665-.433-.074-.019-4.244-1.1-2.471-.641-2.5-.65-1.573-.41-4.246-1.1-.025-.008-.107-.027-.16-.042-.227-.059-.22-.057-.523-.137-.025-.006-1.065-.277.006,1.174v.024l-.011.019,0,.02.017.024,0,.021,0,.018,0,.018.006.017.007.014.009.014.007.013.011.011"
                  transform="translate(-2839.657 -4688.115)"/>
            <path class="b" d="M2832.318,4752.643l-1.849-.519,7.855,2.213" transform="translate(-2829.464 -4687.196)"/>
            <path class="a" d="M2848.464,4736.719v0l0-.3,0-.985v-.184l.021-5.392.017-3.97"
                  transform="translate(-2839.647 -4672.348)"/>
            <path class="b" d="M3031.566,4619.694l.318.069,2.017.527.36.093h.006l.087.029.557.179"
                  transform="translate(-2943.264 -4612.254)"/>
            <line class="b" x2="8.614" y2="2.47" transform="translate(29.815 72.545)"/>
        </g>
    </g>
</svg>
