<svg width="31" height="31" viewBox="0 0 31 31"  xmlns="http://www.w3.org/2000/svg">
    <path  d="M7.75 0H18.4062V1.9375H7.75C7.23614 1.9375 6.74333 2.14163 6.37998 2.50498C6.01663 2.86833 5.8125 3.36114 5.8125 3.875V27.125C5.8125 27.6389 6.01663 28.1317 6.37998 28.495C6.74333 28.8584 7.23614 29.0625 7.75 29.0625H23.25C23.7639 29.0625 24.2567 28.8584 24.62 28.495C24.9834 28.1317 25.1875 27.6389 25.1875 27.125V8.71875H27.125V27.125C27.125 28.1527 26.7167 29.1383 25.99 29.865C25.2633 30.5917 24.2777 31 23.25 31H7.75C6.72229 31 5.73666 30.5917 5.00996 29.865C4.28326 29.1383 3.875 28.1527 3.875 27.125V3.875C3.875 2.84729 4.28326 1.86166 5.00996 1.13496C5.73666 0.408258 6.72229 0 7.75 0V0Z"/>
    <path  d="M18.4062 5.8125V0L27.125 8.71875H21.3125C20.5417 8.71875 19.8025 8.41256 19.2575 7.86753C18.7124 7.3225 18.4063 6.58329 18.4062 5.8125Z"/>
    <path  fill-rule="evenodd" clip-rule="evenodd" d="M15.5002 11.625C15.7572 11.625 16.0036 11.7271 16.1853 11.9087C16.3669 12.0904 16.469 12.3368 16.469 12.5938V19.9427L18.6894 17.7204C18.8713 17.5385 19.118 17.4363 19.3752 17.4363C19.6325 17.4363 19.8792 17.5385 20.0611 17.7204C20.243 17.9023 20.3452 18.149 20.3452 18.4063C20.3452 18.6635 20.243 18.9102 20.0611 19.0921L16.1861 22.9671C16.0961 23.0573 15.9892 23.1289 15.8715 23.1778C15.7538 23.2266 15.6277 23.2517 15.5002 23.2517C15.3728 23.2517 15.2467 23.2266 15.129 23.1778C15.0113 23.1289 14.9044 23.0573 14.8144 22.9671L10.9394 19.0921C10.7575 18.9102 10.6553 18.6635 10.6553 18.4063C10.6553 18.149 10.7575 17.9023 10.9394 17.7204C11.1213 17.5385 11.368 17.4363 11.6252 17.4363C11.8825 17.4363 12.1292 17.5385 12.3111 17.7204L14.5315 19.9427V12.5938C14.5315 12.3368 14.6336 12.0904 14.8152 11.9087C14.9969 11.7271 15.2433 11.625 15.5002 11.625Z" />
</svg>