<svg xmlns="http://www.w3.org/2000/svg" width="94.85" height="58.304" viewBox="0 0 94.85 58.304">
    <defs>
        <style>.a{fill:#fff;stroke-width:2px;}.a,.b{stroke:#fff;}.b{fill:none;stroke-linecap:round;stroke-width:3px;}
        </style>
    </defs>
    <g transform="translate(-915.542 -836.225)">
        <g transform="matrix(0.848, 0.53, -0.53, 0.848, 957.415, 834.614)">
            <g transform="translate(5.677 0)">
                <path class="a"
                      d="M30.592,35.414a.589.589,0,0,1-.535-.836c2.041-4.44,2.064-11.8,2.064-12.114,0-2.426-.805-4.165-2.268-4.9a1.625,1.625,0,0,0-1.711.2.778.778,0,0,1-1.223-.563,3.907,3.907,0,0,0-3.06-3.361c-1.212-.269-2.068.814-2.47,1.484a.778.778,0,0,1-1.4-.128c-.915-2.457-2.333-3.621-4.21-3.466a1.768,1.768,0,0,0-1.834,1.758.778.778,0,0,1-1.463.3c-.723-1.366-2.639-4.972-4.814-8.96C5.18.26,2.881,1.257,2.784,1.3c-.14.07-3.409,1.791-.194,8.651,1,2.14,2.005,3.922,2.889,5.494,2.25,4,3.876,6.893,3.172,11.469a.589.589,0,1,1-1.165-.179c.642-4.174-.821-6.775-3.035-10.712-.894-1.59-1.907-3.392-2.929-5.572C-2.221,2.466,2.092.325,2.277.237,2.4.176,5.639-1.361,8.705,4.261c1.792,3.286,3.409,6.314,4.329,8.046a2.948,2.948,0,0,1,2.65-1.748c2.237-.187,4,1.031,5.127,3.532a3.254,3.254,0,0,1,3.3-1.4A5.134,5.134,0,0,1,28,16.5a2.7,2.7,0,0,1,2.384.017c1.09.545,2.919,2.043,2.919,5.951,0,.322-.024,7.935-2.173,12.607A.589.589,0,0,1,30.592,35.414Z"/>
            </g>
            <g transform="translate(11.742 33.547)">
                <path class="a"
                      d="M8.408,6.2a.578.578,0,0,1-.159-.022A16.066,16.066,0,0,1,.121.948.589.589,0,1,1,1.058.232,14.839,14.839,0,0,0,8.567,5.039.59.59,0,0,1,8.408,6.2Z"/>
            </g>
            <g transform="translate(19.339 33.556)">
                <path class="a"
                      d="M8.1,11.049A11.236,11.236,0,0,1,4.455,10.5,6.529,6.529,0,0,1,.012,5.9a.59.59,0,0,1,1.155-.24A5.428,5.428,0,0,0,4.838,9.387a13.171,13.171,0,0,0,5.76.31,13.735,13.735,0,0,0,4.749-1.279A5.8,5.8,0,0,0,18.35,5a3.609,3.609,0,0,0-1.294-3.913.589.589,0,1,1,.637-.991,4.76,4.76,0,0,1,1.792,5.219A6.973,6.973,0,0,1,15.9,9.461a15.033,15.033,0,0,1-5.156,1.406A21.791,21.791,0,0,1,8.1,11.049Z"/>
            </g>
            <g transform="translate(0 24.34)">
                <path class="a"
                      d="M12.493,10.656A.59.59,0,0,1,12,10.391c-1.952-2.957-3.969-3.974-6.35-3.2-2.04.663-4.063.375-5.034-.718C.181,5.982-.422,4.883.431,3.032,2.05-.479,9.7.013,10.02.036a19.68,19.68,0,0,1,3.808.536A.59.59,0,0,1,13.3,1.624a26.549,26.549,0,0,0-3.365-.413c-1.98-.138-7.368.011-8.431,2.314a2.012,2.012,0,0,0,0,2.163c.643.725,2.236.884,3.788.38,4.341-1.412,6.868,2.415,7.7,3.672a.59.59,0,0,1-.491.915Z"/>
            </g>
        </g>
        <g transform="translate(973.703 842.353) rotate(-1)">
            <path class="b" d="M0,1.144S17.076-3.323,33.87,5.4" transform="translate(0 0.863)"/>
            <path class="b" d="M0,6.818H6.7L5.085,0" transform="translate(26.53 1.279) rotate(-11)"/>
        </g>
        <g transform="matrix(-1, -0.017, 0.017, -1, 952.092, 850.324)">
            <path class="b" d="M0,4.254S17.076,8.721,33.87,0" transform="translate(0 1.711)"/>
            <path class="b" d="M0,0H6.7L5.085,6.818" transform="translate(27.831 0) rotate(11)"/>
        </g>
    </g>
</svg>
