<svg xmlns="http://www.w3.org/2000/svg" width="390.073" height="80.207" viewBox="0 0 390.073 80.207">
    <defs>
        <style>.a{fill:#1a1818;}</style>
    </defs>
    <g transform="translate(0 0)">
        <g transform="translate(0 5.706)">
            <g transform="translate(31.177)">
                <path class="a"
                      d="M283.5,375.813a58.639,58.639,0,0,0,19.276-3.1,61.376,61.376,0,0,0,0-38.539,61.369,61.369,0,0,0-38.539,0,61.23,61.23,0,0,0,0,38.539A58.655,58.655,0,0,0,283.5,375.813ZM267.065,337a52.439,52.439,0,0,1,32.884,0,52.25,52.25,0,0,1,0,32.883,52.228,52.228,0,0,1-32.884,0,52.324,52.324,0,0,1,0-32.883Z"
                      transform="translate(-261.128 -331.069)"/>
            </g>
            <g transform="translate(49.45 7.268)">
                <rect class="a" width="8.217" height="7.302"/>
            </g>
            <g transform="translate(38.45 18.312)">
                <path class="a"
                      d="M286.914,378.2v9.266h8.217V378.2a2.385,2.385,0,0,1,2.379-2.387h8.621v-6.753a151.738,151.738,0,0,0-30.216-.021v6.773h8.625A2.382,2.382,0,0,1,286.914,378.2Z"
                      transform="translate(-275.915 -368.297)"/>
            </g>
            <g transform="translate(0 57.431)">
                <path class="a"
                      d="M197.745,449.846h6.216a2.629,2.629,0,0,1,1.5.293,1.485,1.485,0,0,1,.375,1.2v9.241h4.1v-9.241a1.475,1.475,0,0,1,.375-1.2,2.611,2.611,0,0,1,1.491-.293h6.213v-2.018H197.745Z"
                      transform="translate(-197.745 -447.828)"/>
            </g>
            <g transform="translate(22.543 57.431)">
                <path class="a"
                      d="M248.05,457.886a1.5,1.5,0,0,1-.378-1.209v-1.639h8.807v-1.943h-8.807v-1.756a1.491,1.491,0,0,1,.378-1.2,2.6,2.6,0,0,1,1.493-.3h10.149v-2.013H247.367a4.067,4.067,0,0,0-2.913.867,3.748,3.748,0,0,0-.878,2.766v5.493a3.746,3.746,0,0,0,.878,2.768,4.053,4.053,0,0,0,2.913.862h13.658v-2.4H249.543A2.629,2.629,0,0,1,248.05,457.886Z"
                      transform="translate(-243.576 -447.828)"/>
            </g>
            <g transform="translate(64.572 57.565)">
                <path class="a"
                      d="M339.108,453.058l-6.881-4.957h-3.206v12.621h3.789v-8.637a.33.33,0,0,1,.334-.322.348.348,0,0,1,.18.051l5.784,4.146,5.753-4.146a.351.351,0,0,1,.184-.051.339.339,0,0,1,.342.319v8.64h3.8V448.1h-3.251Z"
                      transform="translate(-329.021 -448.101)"/>
            </g>
            <g transform="translate(87.784 57.431)">
                <path class="a"
                      d="M394.65,448.7a4.059,4.059,0,0,0-2.907-.87H380.006a4.066,4.066,0,0,0-2.911.87,3.753,3.753,0,0,0-.882,2.777v9.109h4.1V456.4h11.126v4.178h4.1v-9.109A3.757,3.757,0,0,0,394.65,448.7Zm-3.215,5.767H380.309v-3.106a1.5,1.5,0,0,1,.378-1.211,2.64,2.64,0,0,1,1.5-.3h7.383a2.612,2.612,0,0,1,1.491.3,1.492,1.492,0,0,1,.378,1.211Z"
                      transform="translate(-376.213 -447.828)"/>
            </g>
            <g transform="translate(43.075 57.431)">
                <path class="a"
                      d="M300.925,455.423a3.573,3.573,0,0,0,2.432-3.543c.014-3.065-2.677-3.982-5.218-4.052H285.317v12.755h4.1v-3.677c.007-.756.607-.956,1.355-.956h5.5v.005h.033a3.094,3.094,0,0,1,1.505.29,2.384,2.384,0,0,1,.914,1.061l1.715,3.285h3.855l-2.15-3.9A2.921,2.921,0,0,0,300.925,455.423Zm-3.5-1.336H289.4l-.005-4.246h8.067c1.335,0,2.059.462,2.033,2.13S298.841,454.088,297.422,454.088Z"
                      transform="translate(-285.317 -447.828)"/>
            </g>
        </g>
        <g transform="translate(132.886)">
            <rect class="a" width="1.98" height="80.207" transform="translate(1.98 80.207) rotate(180)"/>
        </g>
        <g transform="translate(164.981 20.917)">
            <path class="a"
                  d="M556.4,368.753a2.068,2.068,0,0,1-.552.685,1.271,1.271,0,0,1-.755.215,2.016,2.016,0,0,1-1.124-.45c-.409-.3-.939-.633-1.552-1a12.643,12.643,0,0,0-2.227-1,9.806,9.806,0,0,0-3.125-.449,9.157,9.157,0,0,0-2.982.449,6.533,6.533,0,0,0-2.165,1.215,5.331,5.331,0,0,0-1.307,1.818,5.534,5.534,0,0,0-.449,2.257,4.121,4.121,0,0,0,.8,2.6,7.048,7.048,0,0,0,2.1,1.757A17,17,0,0,0,546,378.129c1.1.358,2.247.735,3.391,1.123a32.428,32.428,0,0,1,3.391,1.338,11.579,11.579,0,0,1,2.941,1.91,8.575,8.575,0,0,1,2.1,2.819,9.356,9.356,0,0,1,.8,4.075,12.945,12.945,0,0,1-.878,4.811,11.379,11.379,0,0,1-2.553,3.932,11.879,11.879,0,0,1-4.126,2.635,15.122,15.122,0,0,1-5.576.96,18.228,18.228,0,0,1-3.616-.358,17.808,17.808,0,0,1-3.33-1.031,15.638,15.638,0,0,1-2.941-1.6,13.539,13.539,0,0,1-2.452-2.093l1.655-2.758a2.046,2.046,0,0,1,.572-.541,1.354,1.354,0,0,1,.776-.225,2.188,2.188,0,0,1,1.307.6c.511.4,1.123.827,1.838,1.307a14.354,14.354,0,0,0,2.635,1.317,10.28,10.28,0,0,0,3.718.593,10.007,10.007,0,0,0,3.207-.47,6.59,6.59,0,0,0,2.369-1.359,6.013,6.013,0,0,0,1.471-2.124,7.055,7.055,0,0,0,.511-2.757,4.693,4.693,0,0,0-.776-2.788,6.581,6.581,0,0,0-2.084-1.818,15.731,15.731,0,0,0-2.962-1.246c-1.1-.337-2.227-.694-3.391-1.072a33.616,33.616,0,0,1-3.37-1.287,11.2,11.2,0,0,1-2.962-1.9,8.954,8.954,0,0,1-2.084-2.952,11.068,11.068,0,0,1-.776-4.382,10.6,10.6,0,0,1,.8-4.034,10.747,10.747,0,0,1,2.369-3.452,11.944,11.944,0,0,1,3.84-2.41,13.991,13.991,0,0,1,5.209-.9,16.784,16.784,0,0,1,6.006,1.042,13.744,13.744,0,0,1,4.78,2.992Z"
                  transform="translate(-533.156 -361.992)"/>
            <path class="a"
                  d="M640.31,362.864v38.882h-5.025V374.078c0-.419,0-.858.041-1.328.021-.47.041-.95.082-1.44l-12.93,23.746a2.2,2.2,0,0,1-2.083,1.328h-.817a2.153,2.153,0,0,1-2.063-1.328l-13.175-23.828a28.39,28.39,0,0,1,.143,2.849v27.668h-5.045V362.864H603.7a3.616,3.616,0,0,1,1.185.153,1.721,1.721,0,0,1,.8.827l12.992,23.277c.245.47.49.97.715,1.491.2.531.409,1.052.613,1.573a26.774,26.774,0,0,1,1.328-3.085l12.747-23.256a1.543,1.543,0,0,1,.776-.827,3.618,3.618,0,0,1,1.185-.153Z"
                  transform="translate(-566.834 -362.435)"/>
            <path class="a"
                  d="M729.249,401.746h-4.432a1.949,1.949,0,0,1-1.246-.378,2.153,2.153,0,0,1-.715-.981l-3.432-9.008H702.285l-3.452,9.008a2.079,2.079,0,0,1-.694.94,1.935,1.935,0,0,1-1.246.419H692.46l15.483-38.882h5.822Zm-11.4-14.483-5.76-15.085a30.2,30.2,0,0,1-1.246-3.9c-.2.776-.408,1.5-.613,2.165s-.408,1.266-.612,1.787l-5.74,15.034Z"
                  transform="translate(-614.102 -362.435)"/>
            <path class="a"
                  d="M806.285,401.746h-5.148a2.418,2.418,0,0,1-2.247-1.215l-9.6-13.492a3.033,3.033,0,0,0-1-.96,3.739,3.739,0,0,0-1.635-.276H782.9v15.943h-5.76V362.864H788.33a23.78,23.78,0,0,1,6.5.776,12.646,12.646,0,0,1,4.494,2.185,8.536,8.536,0,0,1,2.615,3.432,11.3,11.3,0,0,1,.858,4.494,11.739,11.739,0,0,1-.613,3.82,10.126,10.126,0,0,1-1.838,3.207,11.205,11.205,0,0,1-2.942,2.451,14.041,14.041,0,0,1-3.922,1.562,6,6,0,0,1,1.879,1.818Zm-18.139-20.141a13.053,13.053,0,0,0,3.922-.541,8.1,8.1,0,0,0,2.819-1.532,6.507,6.507,0,0,0,1.716-2.359,8,8,0,0,0,.572-3.013,6.008,6.008,0,0,0-2.227-5.066q-2.206-1.7-6.618-1.706H782.9v14.217Z"
                  transform="translate(-657.128 -362.435)"/>
            <path class="a" d="M866.459,367.684H854.121v34.062h-5.74V367.684h-12.4v-4.82h30.477Z"
                  transform="translate(-687.029 -362.435)"/>
        </g>
    </g>
    <g transform="translate(356.734 26.759)">
        <g transform="translate(2.696)">
            <path class="a"
                  d="M950.143,382.844a30.441,30.441,0,0,0-21.668-8.975v4.673a25.97,25.97,0,0,1,25.97,25.97h4.673A30.439,30.439,0,0,0,950.143,382.844Z"
                  transform="translate(-928.475 -373.869)"/>
            <path class="a"
                  d="M928.475,390.746v4.674a17.667,17.667,0,0,1,17.668,17.668h4.674a22.342,22.342,0,0,0-22.342-22.342Z"
                  transform="translate(-928.475 -382.445)"/>
            <path class="a"
                  d="M928.475,407.644v4.674a9.356,9.356,0,0,1,9.357,9.356h4.674a14.03,14.03,0,0,0-14.031-14.031Z"
                  transform="translate(-928.475 -391.031)"/>
        </g>
        <circle class="a" cx="3.72" cy="3.72" r="3.72" transform="translate(0 26.029)"/>
    </g>
    <g transform="translate(0 0)">
        <g transform="translate(0 5.706)">
            <g transform="translate(31.177)">
                <path class="a"
                      d="M283.5,375.813a58.639,58.639,0,0,0,19.276-3.1,61.376,61.376,0,0,0,0-38.539,61.369,61.369,0,0,0-38.539,0,61.23,61.23,0,0,0,0,38.539A58.655,58.655,0,0,0,283.5,375.813ZM267.065,337a52.439,52.439,0,0,1,32.884,0,52.25,52.25,0,0,1,0,32.883,52.228,52.228,0,0,1-32.884,0,52.324,52.324,0,0,1,0-32.883Z"
                      transform="translate(-261.128 -331.069)"/>
            </g>
            <g transform="translate(49.45 7.268)">
                <rect class="a" width="8.217" height="7.302"/>
            </g>
            <g transform="translate(38.45 18.312)">
                <path class="a"
                      d="M286.914,378.2v9.266h8.217V378.2a2.385,2.385,0,0,1,2.379-2.387h8.621v-6.753a151.738,151.738,0,0,0-30.216-.021v6.773h8.625A2.382,2.382,0,0,1,286.914,378.2Z"
                      transform="translate(-275.915 -368.297)"/>
            </g>
            <g transform="translate(0 57.431)">
                <path class="a"
                      d="M197.745,449.846h6.216a2.629,2.629,0,0,1,1.5.293,1.485,1.485,0,0,1,.375,1.2v9.241h4.1v-9.241a1.475,1.475,0,0,1,.375-1.2,2.611,2.611,0,0,1,1.491-.293h6.213v-2.018H197.745Z"
                      transform="translate(-197.745 -447.828)"/>
            </g>
            <g transform="translate(22.543 57.431)">
                <path class="a"
                      d="M248.05,457.886a1.5,1.5,0,0,1-.378-1.209v-1.639h8.807v-1.943h-8.807v-1.756a1.491,1.491,0,0,1,.378-1.2,2.6,2.6,0,0,1,1.493-.3h10.149v-2.013H247.367a4.067,4.067,0,0,0-2.913.867,3.748,3.748,0,0,0-.878,2.766v5.493a3.746,3.746,0,0,0,.878,2.768,4.053,4.053,0,0,0,2.913.862h13.658v-2.4H249.543A2.629,2.629,0,0,1,248.05,457.886Z"
                      transform="translate(-243.576 -447.828)"/>
            </g>
            <g transform="translate(64.572 57.565)">
                <path class="a"
                      d="M339.108,453.058l-6.881-4.957h-3.206v12.621h3.789v-8.637a.33.33,0,0,1,.334-.322.348.348,0,0,1,.18.051l5.784,4.146,5.753-4.146a.351.351,0,0,1,.184-.051.339.339,0,0,1,.342.319v8.64h3.8V448.1h-3.251Z"
                      transform="translate(-329.021 -448.101)"/>
            </g>
            <g transform="translate(87.784 57.431)">
                <path class="a"
                      d="M394.65,448.7a4.059,4.059,0,0,0-2.907-.87H380.006a4.066,4.066,0,0,0-2.911.87,3.753,3.753,0,0,0-.882,2.777v9.109h4.1V456.4h11.126v4.178h4.1v-9.109A3.757,3.757,0,0,0,394.65,448.7Zm-3.215,5.767H380.309v-3.106a1.5,1.5,0,0,1,.378-1.211,2.64,2.64,0,0,1,1.5-.3h7.383a2.612,2.612,0,0,1,1.491.3,1.492,1.492,0,0,1,.378,1.211Z"
                      transform="translate(-376.213 -447.828)"/>
            </g>
            <g transform="translate(43.075 57.431)">
                <path class="a"
                      d="M300.925,455.423a3.573,3.573,0,0,0,2.432-3.543c.014-3.065-2.677-3.982-5.218-4.052H285.317v12.755h4.1v-3.677c.007-.756.607-.956,1.355-.956h5.5v.005h.033a3.094,3.094,0,0,1,1.505.29,2.384,2.384,0,0,1,.914,1.061l1.715,3.285h3.855l-2.15-3.9A2.921,2.921,0,0,0,300.925,455.423Zm-3.5-1.336H289.4l-.005-4.246h8.067c1.335,0,2.059.462,2.033,2.13S298.841,454.088,297.422,454.088Z"
                      transform="translate(-285.317 -447.828)"/>
            </g>
        </g>
        <g transform="translate(132.886)">
            <rect class="a" width="1.98" height="80.207" transform="translate(1.98 80.207) rotate(180)"/>
        </g>
        <g transform="translate(164.981 20.917)">
            <path class="a"
                  d="M556.4,368.753a2.068,2.068,0,0,1-.552.685,1.271,1.271,0,0,1-.755.215,2.016,2.016,0,0,1-1.124-.45c-.409-.3-.939-.633-1.552-1a12.643,12.643,0,0,0-2.227-1,9.806,9.806,0,0,0-3.125-.449,9.157,9.157,0,0,0-2.982.449,6.533,6.533,0,0,0-2.165,1.215,5.331,5.331,0,0,0-1.307,1.818,5.534,5.534,0,0,0-.449,2.257,4.121,4.121,0,0,0,.8,2.6,7.048,7.048,0,0,0,2.1,1.757A17,17,0,0,0,546,378.129c1.1.358,2.247.735,3.391,1.123a32.428,32.428,0,0,1,3.391,1.338,11.579,11.579,0,0,1,2.941,1.91,8.575,8.575,0,0,1,2.1,2.819,9.356,9.356,0,0,1,.8,4.075,12.945,12.945,0,0,1-.878,4.811,11.379,11.379,0,0,1-2.553,3.932,11.879,11.879,0,0,1-4.126,2.635,15.122,15.122,0,0,1-5.576.96,18.228,18.228,0,0,1-3.616-.358,17.808,17.808,0,0,1-3.33-1.031,15.638,15.638,0,0,1-2.941-1.6,13.539,13.539,0,0,1-2.452-2.093l1.655-2.758a2.046,2.046,0,0,1,.572-.541,1.354,1.354,0,0,1,.776-.225,2.188,2.188,0,0,1,1.307.6c.511.4,1.123.827,1.838,1.307a14.354,14.354,0,0,0,2.635,1.317,10.28,10.28,0,0,0,3.718.593,10.007,10.007,0,0,0,3.207-.47,6.59,6.59,0,0,0,2.369-1.359,6.013,6.013,0,0,0,1.471-2.124,7.055,7.055,0,0,0,.511-2.757,4.693,4.693,0,0,0-.776-2.788,6.581,6.581,0,0,0-2.084-1.818,15.731,15.731,0,0,0-2.962-1.246c-1.1-.337-2.227-.694-3.391-1.072a33.616,33.616,0,0,1-3.37-1.287,11.2,11.2,0,0,1-2.962-1.9,8.954,8.954,0,0,1-2.084-2.952,11.068,11.068,0,0,1-.776-4.382,10.6,10.6,0,0,1,.8-4.034,10.747,10.747,0,0,1,2.369-3.452,11.944,11.944,0,0,1,3.84-2.41,13.991,13.991,0,0,1,5.209-.9,16.784,16.784,0,0,1,6.006,1.042,13.744,13.744,0,0,1,4.78,2.992Z"
                  transform="translate(-533.156 -361.992)"/>
            <path class="a"
                  d="M640.31,362.864v38.882h-5.025V374.078c0-.419,0-.858.041-1.328.021-.47.041-.95.082-1.44l-12.93,23.746a2.2,2.2,0,0,1-2.083,1.328h-.817a2.153,2.153,0,0,1-2.063-1.328l-13.175-23.828a28.39,28.39,0,0,1,.143,2.849v27.668h-5.045V362.864H603.7a3.616,3.616,0,0,1,1.185.153,1.721,1.721,0,0,1,.8.827l12.992,23.277c.245.47.49.97.715,1.491.2.531.409,1.052.613,1.573a26.774,26.774,0,0,1,1.328-3.085l12.747-23.256a1.543,1.543,0,0,1,.776-.827,3.618,3.618,0,0,1,1.185-.153Z"
                  transform="translate(-566.834 -362.435)"/>
            <path class="a"
                  d="M729.249,401.746h-4.432a1.949,1.949,0,0,1-1.246-.378,2.153,2.153,0,0,1-.715-.981l-3.432-9.008H702.285l-3.452,9.008a2.079,2.079,0,0,1-.694.94,1.935,1.935,0,0,1-1.246.419H692.46l15.483-38.882h5.822Zm-11.4-14.483-5.76-15.085a30.2,30.2,0,0,1-1.246-3.9c-.2.776-.408,1.5-.613,2.165s-.408,1.266-.612,1.787l-5.74,15.034Z"
                  transform="translate(-614.102 -362.435)"/>
            <path class="a"
                  d="M806.285,401.746h-5.148a2.418,2.418,0,0,1-2.247-1.215l-9.6-13.492a3.033,3.033,0,0,0-1-.96,3.739,3.739,0,0,0-1.635-.276H782.9v15.943h-5.76V362.864H788.33a23.78,23.78,0,0,1,6.5.776,12.646,12.646,0,0,1,4.494,2.185,8.536,8.536,0,0,1,2.615,3.432,11.3,11.3,0,0,1,.858,4.494,11.739,11.739,0,0,1-.613,3.82,10.126,10.126,0,0,1-1.838,3.207,11.205,11.205,0,0,1-2.942,2.451,14.041,14.041,0,0,1-3.922,1.562,6,6,0,0,1,1.879,1.818Zm-18.139-20.141a13.053,13.053,0,0,0,3.922-.541,8.1,8.1,0,0,0,2.819-1.532,6.507,6.507,0,0,0,1.716-2.359,8,8,0,0,0,.572-3.013,6.008,6.008,0,0,0-2.227-5.066q-2.206-1.7-6.618-1.706H782.9v14.217Z"
                  transform="translate(-657.128 -362.435)"/>
            <path class="a" d="M866.459,367.684H854.121v34.062h-5.74V367.684h-12.4v-4.82h30.477Z"
                  transform="translate(-687.029 -362.435)"/>
        </g>
    </g>
    <g transform="translate(356.734 26.759)">
        <g transform="translate(2.696)">
            <path class="a"
                  d="M950.143,382.844a30.441,30.441,0,0,0-21.668-8.975v4.673a25.97,25.97,0,0,1,25.97,25.97h4.673A30.439,30.439,0,0,0,950.143,382.844Z"
                  transform="translate(-928.475 -373.869)"/>
            <path class="a"
                  d="M928.475,390.746v4.674a17.667,17.667,0,0,1,17.668,17.668h4.674a22.342,22.342,0,0,0-22.342-22.342Z"
                  transform="translate(-928.475 -382.445)"/>
            <path class="a"
                  d="M928.475,407.644v4.674a9.356,9.356,0,0,1,9.357,9.356h4.674a14.03,14.03,0,0,0-14.031-14.031Z"
                  transform="translate(-928.475 -391.031)"/>
        </g>
        <circle class="a" cx="3.72" cy="3.72" r="3.72" transform="translate(0 26.029)"/>
    </g>
</svg>
