<svg xmlns="http://www.w3.org/2000/svg" width="43.548" height="46.001" viewBox="0 0 43.548 46.001"><defs><style>.a{fill:#fff;stroke:#e72327;stroke-width:2px;}.b{stroke:none;}.c{fill:none;}</style></defs><g transform="translate(-619 -2664.07)"><g class="a" transform="translate(619 2664.194)"><rect class="b" width="16" height="35" rx="4"/><rect class="c" x="1" y="1" width="14" height="33" rx="3"/></g><g class="a" transform="matrix(0.985, 0.174, -0.174, 0.985, 626.16, 2664.07)"><rect class="b" width="16" height="35" rx="2"/><rect class="c" x="1" y="1" width="14" height="33" rx="1"/></g><g class="a" transform="matrix(0.94, 0.342, -0.342, 0.94, 633.468, 2665.513)"><rect class="b" width="16" height="35" rx="2"/><rect class="c" x="1" y="1" width="14" height="33" rx="1"/></g><g class="a" transform="translate(639.822 2667.538) rotate(30)"><rect class="b" width="16" height="35" rx="2"/><rect class="c" x="1" y="1" width="14" height="33" rx="1"/></g><g class="a" transform="matrix(0.766, 0.643, -0.643, 0.766, 646.12, 2671.146)"><rect class="b" width="16" height="35" rx="3"/><rect class="c" x="1" y="1" width="14" height="33" rx="2"/></g><g class="a" transform="matrix(0.643, 0.766, -0.766, 0.643, 652.264, 2675.317)"><rect class="b" width="16" height="35" rx="3"/><rect class="c" x="1" y="1" width="14" height="33" rx="2"/></g></g></svg>