<svg xmlns="http://www.w3.org/2000/svg" width="61.539" height="52.77" viewBox="0 0 61.539 52.77">
    <defs>
        <style>.a{fill:#fff;}.b,.e{fill:#e72327;}.c{fill:none;}.d,.e{stroke:none;}</style>
    </defs>
    <g transform="translate(-589.674 -2703.23)">
        <g transform="translate(615.891 2719.171)">
            <g class="a" transform="translate(0 0)">
                <path class="d"
                      d="M 4.976099967956543 28.93180084228516 C 2.507969856262207 28.93180084228516 0.4999999701976776 26.92383003234863 0.4999999701976776 24.4556999206543 C 0.4999999701976776 22.87559127807617 1.308200001716614 21.44297981262207 2.661930084228516 20.62347984313965 L 2.902999877929688 20.4775505065918 L 2.902999877929688 20.19575119018555 L 2.902999877929688 2.573100328445435 C 2.902999877929688 1.429990410804749 3.832989931106567 0.5000004172325134 4.976099967956543 0.5000004172325134 C 6.119709968566895 0.5000004172325134 7.050099849700928 1.429990410804749 7.050099849700928 2.573100328445435 L 7.050099849700928 20.1960506439209 L 7.050099849700928 20.47782135009766 L 7.291130065917969 20.62376022338867 C 8.644319534301758 21.4431095123291 9.452199935913086 22.8756103515625 9.452199935913086 24.4556999206543 C 9.452199935913086 26.92383003234863 7.444230079650879 28.93180084228516 4.976099967956543 28.93180084228516 Z"/>
                <path class="e"
                      d="M 4.976099967956543 28.43180084228516 C 7.168529987335205 28.43180084228516 8.952199935913086 26.64813041687012 8.952199935913086 24.4556999206543 C 8.952199935913086 23.05204010009766 8.234430313110352 21.7794303894043 7.032149791717529 21.05146026611328 L 6.550099849700928 20.75958061218262 L 6.550099849700928 20.1960506439209 L 6.550099849700928 2.573100328445435 C 6.550099849700928 1.705690383911133 5.844009876251221 1.000000476837158 4.976099967956543 1.000000476837158 C 4.108689785003662 1.000000476837158 3.402999877929688 1.705690383911133 3.402999877929688 2.573100328445435 L 3.402999877929688 20.19575119018555 L 3.402999877929688 20.75934982299805 L 2.920860052108765 21.05121040344238 C 1.718079924583435 21.77933120727539 0.9999999403953552 23.05204010009766 0.9999999403953552 24.4556999206543 C 0.9999999403953552 26.64813041687012 2.783669948577881 28.43180084228516 4.976099967956543 28.43180084228516 M 4.976099967956543 29.43180084228516 C 2.228399991989136 29.43180084228516 -3.204345944141096e-08 27.20339965820313 -3.204345944141096e-08 24.4556999206543 C -3.204345944141096e-08 22.64908027648926 0.9628699421882629 21.06755065917969 2.402999877929688 20.19575119018555 L 2.402999877929688 2.573100328445435 C 2.402999877929688 1.152000427246094 3.555000066757202 4.211425732592033e-07 4.976099967956543 4.211425732592033e-07 C 6.397200107574463 4.211425732592033e-07 7.550099849700928 1.152000427246094 7.550099849700928 2.573100328445435 L 7.550099849700928 20.1960506439209 C 8.989999771118164 21.06789970397949 9.952199935913086 22.64925003051758 9.952199935913086 24.4556999206543 C 9.952199935913086 27.20339965820313 7.724699974060059 29.43180084228516 4.976099967956543 29.43180084228516 Z"/>
            </g>
            <path class="b"
                  d="M0,10.08a2.68,2.68,0,0,1,2.041-2.6V.638a.638.638,0,1,1,1.275,0V7.477A2.68,2.68,0,1,1,0,10.08Z"
                  transform="translate(2.297 14.351)"/>
        </g>
        <g class="c" transform="translate(-12.569 1010.695)">
            <path class="d"
                  d="M615.091,1745.305a4,4,0,0,1-4-4v-20.712h-8.849l30.77-28.057,30.769,28.057h-9.329V1741.3a4,4,0,0,1-4,4Z"/>
            <path class="e"
                  d="M 650.4515991210938 1743.305297851563 C 651.5546875 1743.305297851563 652.4520874023438 1742.407836914063 652.4520874023438 1741.3046875 L 652.4520874023438 1720.593017578125 L 652.4520874023438 1718.593017578125 L 654.4520874023438 1718.593017578125 L 658.6199340820313 1718.593017578125 L 633.0123291015625 1695.2421875 L 607.4038696289063 1718.593017578125 L 611.0910034179688 1718.593017578125 L 613.0910034179688 1718.593017578125 L 613.0910034179688 1720.593017578125 L 613.0910034179688 1741.3046875 C 613.0910034179688 1742.407836914063 613.9884033203125 1743.305297851563 615.0914916992188 1743.305297851563 L 650.4515991210938 1743.305297851563 M 650.4515991210938 1745.305297851563 L 615.0914916992188 1745.305297851563 C 612.8820190429688 1745.305297851563 611.0910034179688 1743.514282226563 611.0910034179688 1741.3046875 L 611.0910034179688 1720.593017578125 L 602.2421875 1720.593017578125 L 633.0123291015625 1692.535522460938 L 663.781494140625 1720.593017578125 L 654.4520874023438 1720.593017578125 L 654.4520874023438 1741.3046875 C 654.4520874023438 1743.514282226563 652.6611328125 1745.305297851563 650.4515991210938 1745.305297851563 Z"/>
        </g>
    </g>
</svg>
