<svg xmlns="http://www.w3.org/2000/svg" width="68" height="42" viewBox="0 0 51.039 39.624">
    <defs>
        <style>.a,.b{fill:none;stroke:#353434;stroke-linecap:round;stroke-linejoin:round;}.b{stroke-width:2px;}</style>
    </defs>
    <g transform="translate(1.005 1)">
        <path class="a" d="M2848.562,4716.894v-.075l.008-.386.02-.393.032-.4.044-.4.056-.408.068-.41"
              transform="translate(-2844.159 -4690.282)"/>
        <path class="b" d="M2972.608,4604.341l1.965.511,2.11.548,2.11.548,2.11.548,2.11.549,2.11.548"
              transform="translate(-2941.439 -4603.955)"/>
        <path class="a"
              d="M2895.362,4726.544l-.068.452-.056.45-.044.445-.025.331-.008.109-.02.434-.008.426-.009,1.929-.011,2.4v.582"
              transform="translate(-2880.663 -4699.791)"/>
        <path class="a"
              d="M2940.6,4621.458l-.006,0-.049.036-.01.007-.021.015-.039.028-.067.049h0l-.066.048-.073.052-.136.1-.138.1-.085.061-.142.1-.095.068-.146.1-.105.077-.115.083-.15.108-.151.109-.128.092-.293.211-.153.11-.152.11-.217.156-.1.072-.152.109-.176.127-1.244.9-1.769,1.274-.04.029-.073.053-.025.018-.2.141-.044.031-.023.017-.022.016-1.073.774,0,0h0l0,0h0l0,0h0l0,0h0l0,0h0l0,0h0l0,0h0l0,0h0l0,0h0l0,0h0l0,0h0l0,0h0l0,0h0l0,0h0l0,0h0l0,0h0l0,0h0l0,0h0l0,0h-.015l-.193.139-.613.441-.131.094-.127.092-.114.083-.321.231-1.769,1.274-1.769,1.274-.632.456-1.769,1.274-1.769,1.274-1.769,1.274-1.769,1.274-1.769,1.274"
              transform="translate(-2899.018 -4617.38)"/>
        <path class="a"
              d="M2913.071,4695.218h0l-.006,0-.038.029h0l-.1.081h0l-.033.027-.017.013-.03.029-.034.034,0,0-.005,0-.055.055-.036.035-.01.01,0,.006-.006.007-.02.023-.017.02-.007.008-.017.02-.015.019-.023.026-.028.034-.019.021,0,.005-.016.023-.037.053-.011.015-.006.008-.031.043-.046.065h0l-.006.01,0,.007-.023.041-.024.041,0,.006-.006.009-.029.049-.037.063,0,.008-.01.021-.042.085-.006.012v0l0,.006,0,.009,0,0v0l-.042.086-.008.02-.059.143,0,.01,0,.007,0,.013,0,.008-.023.055-.011.032-.015.044-.041.121,0,.012-.006.016-.015.042-.012.043h0l0,0-.014.049-.051.183-.007.028,0,.006-.008.033-.052.224h0l0,.011-.012.066-.033.172-.01.053-.016.1-.013.087-.017.116v.006l-.011.1,0,.023v.009l-.023.189,0,.057-.019.206,0,.046,0,.021-.012.2,0,.037-.006.1,0,.034-.005.116-.006.118,0,.075v.063l0,.08-.005.176v.031l0,.155v.611l0,.178v.174l0,.142v.263l0,.154,0,.11v.068l0,.163v.034l0,.147v.014h0v.025h0v.023h0v.023h0v.064l0,.062,0,.16v.021l0,.038,0,.153v.055l0,.111v.024l0,.124,0,.064.006.167v.024l.006.188v.064l0,.1v.027l0,.119,0,.065,0,.164v.064l0,.151v.037l0,.118v.044l0,.072,0,.123,0,.107v.134l0,.09v.98l0,.7,0,.98,0,1.21,0,.734v.246h0v.007h0v.012h0"
              transform="translate(-2893.577 -4675.224)"/>
        <path class="b"
              d="M2828.167,4632.364v-.09l.029-2.18.029-2.18v-.006l.011-.28v0l.026-.284.039-.285v0l.052-.284.065-.286v0l.078-.284.09-.284.1-.283.113-.279.123-.277h0l.133-.272.143-.269.152-.266.16-.261.168-.257.176-.252h0l.2-.271.208-.268.215-.262.22-.254.335-.368.343-.354.349-.339.351-.326h0l.175-.157.176-.154.349-.3.341-.279,0,0,.167-.134.162-.128h0l.265-.205h0l.252-.191h0l.24-.177.226-.165.866-.625,1.769-1.274,1.769-1.274,1.769-1.274,1.769-1.274,1.769-1.274,1.769-1.273,1.769-1.274,1.769-1.274,1.769-1.275,1.769-1.274,1.769-1.274,1.769-1.274.188-.133,0,0,.174-.121,0,0,.158-.1h0l.142-.089,0,0,0,0,.126-.073h0l0,0,0,0,.11-.057h.007l0,0,.1-.041.007,0,.007,0,.006,0,.006,0,.084-.024h.029l.073-.008h.047l.027,0,1.487.38"
              transform="translate(-2828.164 -4602.554)"/>
        <path class="b" d="M3038.475,4621.5l.091.028.011,0h.007l.022.009.04.015"
              transform="translate(-2993.094 -4617.414)"/>
        <path class="b"
              d="M3039.539,4621.865l.055.02.075.028h.006l.246.107h.007l.242.123h0l.051.028.142.083.045.026-.047-.028-.177-.1-.01,0,.009,0,.039.022.19.11h0l.231.15,0,0,0,0,.225.164,0,0,.217.178h0l0,0,.21.192,0,0,.2.2.19.217,0,0,.179.229,0,0,.167.241.154.251,0,.005.14.263,0,0,.125.273v0l.089.225.078.231v0l.067.236v0l.056.243v0l.044.246.033.253v0l.021.255.01.259v.077l.029,2.18.029,2.18"
              transform="translate(-2993.929 -4617.698)"/>
        <path class="b" d="M3043.566,4623.861l-.068-.044-.008,0h0l-.031-.02,0,0-.014-.01"
              transform="translate(-2996.989 -4619.199)"/>
        <path class="b" d="M3042.451,4623.206l-.057-.033-.007,0h0l-.026-.016,0,0-.012-.007h0"
              transform="translate(-2996.129 -4618.702)"/>
        <path class="b" d="M3041.315,4622.622l-.049-.025-.007,0h0l-.014-.007h0l-.011-.006h0l0,0"
              transform="translate(-2995.252 -4618.257)"/>
        <path class="b" d="M3040.163,4622.108l-.044-.021-.007,0h0l-.01,0h0l-.008,0h0"
              transform="translate(-2994.36 -4617.863)"/>
        <path class="b"
              d="M3040.09,4622.076h0l.01,0h0l.012,0h0l0,0h0l.018.007.01.005.014.006.01,0,.006,0,.014.006h0l.016.008h0l.019.008h0l.022.01.008,0,.015.006.013.006.015.007.028.012"
              transform="translate(-2994.361 -4617.864)"/>
        <path class="b"
              d="M3038.939,4621.643h0l.006,0h0l.006,0h.018l.064.023.087.034h0l0,0h0l0,0,0,0,.009,0h0l.01,0h0l.018.007-.1-.037"
              transform="translate(-2993.458 -4617.524)"/>
        <path class="b" d="M3043.442,4623.779l.015.01,0,0,.031.02h0l.006,0,.077.05.065.043.031.021-.035-.023-.055-.037"
              transform="translate(-2996.99 -4619.199)"/>
        <path class="b"
              d="M3042.342,4623.145h0l.013.008,0,0,.028.017h0l.071.041.005,0,.074.043.036.021-.052-.03-.043-.025"
              transform="translate(-2996.127 -4618.702)"/>
        <path class="b"
              d="M3040.766,4622.375l.1.044,0,0h0l.013.006h0l.016.009h0l.019.009.017.008.023.012.015.007.005,0h0l.022.012.036.018.049.026.013.006-.042-.022-.056-.027"
              transform="translate(-2994.891 -4618.098)"/>
        <path class="b" d="M3039,4621.666l-.042-.016h0l-.006,0h0l0,0h0" transform="translate(-2993.457 -4617.525)"/>
        <path class="b" d="M3037.777,4621.284l.085.024.158.051h.008l-.024-.007-.045-.014-.029-.008"
              transform="translate(-2992.547 -4617.243)"/>
        <path class="b" d="M3037.827,4621.3h0l-.042-.013h0" transform="translate(-2992.547 -4617.243)"/>
        <path class="b" d="M3031.566,4619.695l.158.034" transform="translate(-2987.676 -4615.997)"/>
        <path class="b"
              d="M2828.272,4743.634l-.009,0,0,0-.008-.007,0,0-.007-.007,0,0-.007-.009-.007-.009,0,0-.006-.009,0,0-.005-.01-.005-.011,0,0,0-.011,0-.012,0-.006,0-.011v-.033l-.027-2.034v-.011l0,0,0-.006,0,0,0,0"
              transform="translate(-2828.154 -4711.445)"/>
        <path class="b"
              d="M2917.14,4689.1l.066-.047,0,0,.008-.005.068-.049.019-.014.007,0,.022-.016.029-.021.024-.018.022-.016.023-.017.008,0,.03-.021.029-.021,0,0,.028-.02.008-.005.021-.016.03-.021h0l.027-.02.054-.039.038-.027.037-.027.036-.026.032-.023.159-.115.131-.095.132-.1.2-.143.018-.013.057-.042.018-.012.433-.312.33-.238.025-.018.169-.122.217-.156.292-.21.339-.245.015-.011.486-.35.347-.25,1.769-1.274,1.769-1.274,1.769-1.274.463-.334.135-.1.134-.1.131-.094.127-.091.122-.089.116-.083.108-.078.1-.072,1.769-1.274,1.769-1.274,1.769-1.274,1.769-1.274,1.769-1.274,1.769-1.274,1.8-1.293.042-.03.577-.416.111-.079.3-.216.117-.084.026-.019.538-.387.486-.351.1-.072.095-.068.2-.144.321-.232.052-.037.047-.035.069-.049.169-.122.563-.405.028-.02.03-.021.03-.021.032-.023.038-.027.027-.02.012-.009.034-.024.024-.018,0,0,.027-.02.027-.02h0l.048-.033.023-.017.014-.01,0,0,.009-.006.013-.009.011-.007.019-.013.006,0,.015-.011h0l.005,0,.96-.691.01-.008,1.262-.965,0,0,.008-.006,0,0,.008-.007.008-.009,0,0,.006-.008,0,0,.006-.01,0,0,.006-.009,0-.011,0,0,0-.011,0-.011v0l0-.011v-.035l.027-2.041"
              transform="translate(-2897.939 -4651.867)"/>
        <path class="b"
              d="M2858.668,4757.064l0-.007,0-.008,0-.009,0-.009,0-.01v-.627l-.08-.021-.079-.02-.5-.13-.828-.215-.037-.009-2.11-.549-1.229-.319-1.243-.323-.782-.2-2.11-.548-.012,0-.053-.013-.079-.021-.113-.029-.11-.028-.26-.068-.012,0-.53-.138,0,.583v.012l-.006.009v.01l.009.012v.01l0,.009,0,.009,0,.008,0,.007,0,.007,0,.006.005.005"
              transform="translate(-2844.095 -4721.127)"/>
        <path class="b" d="M2831.389,4752.382l-.919-.258,3.9,1.1" transform="translate(-2829.97 -4719.852)"/>
        <path class="a" d="M2848.464,4731.272v-.73l.01-2.68.008-1.974" transform="translate(-2844.082 -4699.277)"/>
        <path class="b" d="M3031.566,4619.695l.158.034,1,.262.179.046h0l.043.014.277.089"
              transform="translate(-2987.676 -4615.997)"/>
        <line class="b" x2="4.281" y2="1.227" transform="translate(14.819 36.058)"/>
    </g>
</svg>
