<svg xmlns="http://www.w3.org/2000/svg" width="69.793" height="44.868" viewBox="0 0 69.793 44.868"><defs><style>.a,.b{fill:none;stroke:#353434;stroke-linecap:round;stroke-linejoin:round;}.a{stroke-width:2px;}</style></defs><g transform="translate(1.002 1)"><g transform="translate(30.926 14.771)"><path class="a" d="M2685.237,4658.993h.014" transform="translate(-2656.768 -4658.98)"/><path class="a" d="M2722.745,4688.229l-.005,0,0,0-.006.011" transform="translate(-2686.171 -4681.906)"/><path class="a" d="M2722.76,4687.944v-.005l0,0,0-.006,0,0,0,0,0,0-.006,0" transform="translate(-2686.175 -4681.657)"/><path class="a" d="M2693.386,4665.242l.006,0,.005,0,0,0,0,.005,0,0,0,0,0,.005v-2.838a3,3,0,0,0-.844-1.421,1.935,1.935,0,0,0-.686-.312l-2.11-.549-2.11-.548-2.11-.548-.154-.04-.087-.014" transform="translate(-2656.826 -4658.99)"/><path class="a" d="M2581.687,4658.937l-.025,0h-.013l-.131,0h-.019l-.134.012h-.012l-.136.027h-.006l-.006,0-.138.04-.006,0-.006,0-.005,0-.139.054-.009,0-.14.068-.008,0-.141.082-.008,0-.143.1-1.769,1.274-1.769,1.274-1.769,1.274-1.769,1.275-1.769,1.274-1.769,1.274-1.769,1.274-1.769,1.274-1.769,1.275-1.769,1.274-1.769,1.274-1.769,1.274-1.769,1.274-1.455,1.048-.093.07-.088.07,0,0-.087.076-.087.081,0,0-.087.085-.086.089,0,0-.17.192,0,0-.137.17,0,0-.134.18-.132.19,0,0-.129.2-.125.209,0,0-.121.217-.118.226-.113.232-.108.241v0l-.1.246-.1.251-.092.256-.086.26-.08.263-.073.266-.067.267-.063.283-.055.283-.035.2-.031.2-.026.2-.022.2v0l-.018.2-.014.2-.009.193,0,.189v0l-.006.6" transform="translate(-2553.295 -4658.932)"/><path class="a" d="M2682.432,4659.141l-.01,0-.014,0-.019.005-.008,0-.027.008h0l.026-.008.007,0,.019,0,.011,0,.013,0,.015,0,.008,0,.006,0,.028-.007" transform="translate(-2654.501 -4659.083)"/><path class="a" d="M2683,4658.977l.017,0h.008l.031-.007.01,0,.021,0,.014,0,.013,0,.015,0h.009l.033,0h.028l.015,0h.224l.046.008h.015" transform="translate(-2655.015 -4658.934)"/><path class="a" d="M2682.983,4659.06h0l-.011,0-.032.007h0l-.009,0-.016,0-.023.006" transform="translate(-2654.925 -4659.032)"/><path class="a" d="M2560.2,4777.932l-.008,0-.009,0-.01,0-.01,0-.011,0-.011,0-.011,0-.011,0h-.108l-.012,0h-.022l-.011,0-.011,0-.08-.021-.565-.147-2.11-.548-1.808-.47-1.171-.3-.275-.072-.025-.007-.142-.037-.378-.1-.01,0-.01,0-.009,0-.009,0-.008,0-.008,0-.007,0-.007,0-.006,0-.005,0,0-.005,0-.005,0,0,0,0,0-.005v-.006l-.009-.822" transform="translate(-2553.295 -4750.231)"/><path class="a" d="M2615.043,4688.094v.016l0,0,0,0,0,.005-.016.014-.446.322-.047.033-.117.084-1.775,1.279-.13.094-.029.021-.494.355-1.769,1.274-1.769,1.274-1.769,1.274-1.769,1.274-1.769,1.274-1.769,1.274-1.769,1.274-1.769,1.274-1.769,1.274-1.77,1.274-1.768,1.274-1.769,1.275-1.769,1.274-1.769,1.274-.029.021-.134.1-.026.018-1.645,1.185" transform="translate(-2578.456 -4681.802)"/><path class="a" d="M2553.332,4778.99v-.01l0-.005,0,0,0-.006,0,0,0-.011,0-.005.006,0" transform="translate(-2553.324 -4753.047)"/><path class="a" d="M2585.3,4787.241l-.007,0-.008,0-.008.011" transform="translate(-2578.378 -4759.554)"/><path class="b" d="M2584.471,4693.632v-1.69s.228-4.278,2.73-6.3l24.646-17.633" transform="translate(-2577.744 -4666.048)"/></g><g transform="translate(0 0)"><path class="b" d="M2430.375,4704.812v-.075l.008-.386.02-.393.033-.4.044-.4.056-.408.068-.41" transform="translate(-2425.972 -4678.2)"/><path class="a" d="M2554.421,4592.259l1.966.511,2.11.548,2.11.548,2.11.548,2.11.549,2.11.548" transform="translate(-2523.252 -4591.873)"/><path class="b" d="M2477.175,4714.462l-.068.452-.056.449-.044.446-.024.331-.008.108-.02.434-.009.426-.009,1.929-.011,2.4v.581" transform="translate(-2462.476 -4687.708)"/><path class="b" d="M2605,4607.3l-.043-.009h-.009l-.041-.01-.018,0-.031,0-.032,0-.019,0-.093-.014-.042-.005-.045-.008h-.016l-.052,0h-.018l-.111-.008h-.021l-.055,0h-.286l-.044,0h-.011l-.044,0h-.024l-.037,0h0l-.045,0h-.012l-.014,0-.011,0-.04.007-.044.007-.029.006-.027,0-.014,0-.064.011-.018,0-.041.011h-.01l-.047.013-.021.006-.026.006-.029.009-.034.009-.031.008-.022.009-.016.006-.023.009-.011,0-.028.011-.022.008-.036.014-.015.006-.007,0,0,0-.044.017-.027.014-.047.024h0l-.027.013-.045.024-.043.021-.028.014-.013.008-.04.025-.015.008-.014.009h0l-.022.013-.028.019-.051.035h0l-.014.009,0,0" transform="translate(-2561.114 -4603.606)"/><path class="b" d="M2522.417,4609.377l-.006,0-.049.035-.01.007-.021.015-.04.029-.067.048h0l-.067.048-.073.052-.136.1-.138.1-.085.061-.142.1-.095.068-.146.105-.106.076-.115.083-.15.108-.151.109-.128.093-.293.21-.153.11-.152.11-.217.156-.1.072-.151.109-.176.127-1.245.9-1.769,1.274-.04.029-.073.053-.024.017-.2.142-.043.031-.023.017-.022.016-1.074.773,0,0h0l0,0h0l0,0h0l0,0h0l0,0h0l0,0h0l0,0h0l0,0h0l0,0h0l0,0h0l0,0h0l0,0h0l0,0h0l0,0h0l0,0h0l0,0h0l0,0h0l0,0h-.01l0,0h0l-.193.139-.613.441-.131.094-.127.092-.115.083-.321.231-1.769,1.274-1.769,1.274-.632.456-1.769,1.274-1.769,1.274-1.769,1.273-1.769,1.274-1.769,1.274" transform="translate(-2480.831 -4605.298)"/><path class="b" d="M2494.884,4683.136h0l-.006,0-.037.029h0l-.1.081h0l-.033.026-.016.013-.03.03-.034.034,0,0,0,0-.055.054-.036.035-.01.011,0,.006-.006.007-.02.023-.017.021-.007.009-.017.02-.015.018-.022.027-.028.033-.019.022,0,0-.016.023-.037.053-.01.016-.006.007-.031.043-.046.066h0l-.006.01,0,.007-.023.041-.024.04,0,.005-.005.009-.029.049-.037.063,0,.008-.01.021-.042.085-.006.012,0,0,0,.006,0,.01,0,0v0l-.042.086-.008.019-.059.143,0,.01,0,.007,0,.012,0,.009-.022.055-.011.032-.015.044-.041.121,0,.013-.006.016-.014.042-.012.043v.006l-.014.049-.052.182-.007.029v.005l-.009.034-.052.225h0v.011l-.012.066-.033.172-.01.053-.016.1-.013.087-.017.116v.006l-.012.1,0,.023v.009l-.023.189,0,.057-.018.206,0,.047,0,.02-.012.2,0,.038-.006.1,0,.034,0,.117-.006.118,0,.076,0,.062,0,.081,0,.176v1.149l0,.142v.263l0,.154,0,.111v.067l.005.164v.034l0,.147v.015h0v.024h0v.023h0v.021h0v.127l.005.16v.021l0,.038,0,.152v.055l0,.111v.024l0,.124,0,.064.006.167v.024l.006.188,0,.063,0,.1v.027l0,.119,0,.066,0,.164v.064l0,.151v.037l0,.117v.117l0,.124,0,.106v1.2l0,.7,0,.98,0,1.211,0,.734v.245h0v.007h0v.014h0" transform="translate(-2475.39 -4663.142)"/><path class="b" d="M2495.1,4688.3l.015-.043.043-.126.023-.066.011-.033.026-.064,0,0,.069-.168.008-.019.043-.088.009-.019,0,0h0l0-.006.046-.093.01-.021,0-.009" transform="translate(-2476.735 -4666.596)"/><path class="a" d="M2409.981,4620.282v-.09l.029-2.18.029-2.18v-.005l.011-.28v0l.026-.284.039-.285v0l.053-.285.065-.285v0l.078-.285.09-.284.1-.283.112-.279.123-.277h0l.133-.272.143-.27.152-.266.16-.261.168-.257.175-.252h0l.2-.272.208-.268.215-.261.22-.254.335-.368.343-.354.349-.34.351-.325h0l.175-.156.176-.154.349-.3.341-.28,0,0,.167-.134.162-.128h0l.265-.205h0l.252-.19,0,0,.239-.177.226-.164.866-.625,1.769-1.274,1.769-1.274,1.769-1.274,1.769-1.274,1.769-1.274,1.769-1.274,1.769-1.274,1.769-1.274,1.769-1.274,1.769-1.275,1.769-1.274,1.769-1.274.187-.133h0l.174-.121h0l.158-.105,0,0,.141-.089,0,0,0,0,.125-.073h0l0,0,0,0,.11-.057h.007l0,0,.1-.042.007,0,.007,0,.006,0,.007,0,.084-.024h.029l.073-.009h.047l.027,0,1.487.38" transform="translate(-2409.978 -4590.473)"/><path class="a" d="M2620.288,4609.42l.092.028.011,0h0l0,0,.022.008.041.015" transform="translate(-2574.907 -4605.332)"/><path class="a" d="M2621.352,4609.783l.054.02.075.028,0,0h0l.246.107h.006l.242.123h0l.051.028.142.083.045.026-.048-.028-.177-.1-.01,0,.008,0,.039.023.19.11h0l.231.15,0,0,0,0,.225.165,0,0,.217.178h0l0,0,.21.192,0,0,.2.2.19.217,0,0,.179.229,0,0,.167.24.154.251,0,.005.14.262v0l.125.273,0,0,.088.226.078.231v0l.067.237v0l.056.243v0l.044.247.033.253v0l.021.255.01.259v.078l.029,2.18.029,2.18" transform="translate(-2575.742 -4605.616)"/><path class="a" d="M2625.38,4611.779l-.068-.044-.008,0h0l-.03-.02,0,0-.014-.01" transform="translate(-2578.802 -4607.117)"/><path class="a" d="M2624.264,4611.125l-.057-.034-.006,0h0l-.026-.015,0,0-.013-.006h0" transform="translate(-2577.941 -4606.621)"/><path class="a" d="M2623.128,4610.541l-.049-.026-.007,0h0l-.014-.007h0l-.011-.006h0l0,0" transform="translate(-2577.065 -4606.175)"/><path class="a" d="M2621.976,4610.027l-.044-.021-.008,0h0l-.01,0h0l-.008,0h0" transform="translate(-2576.173 -4605.782)"/><path class="a" d="M2621.9,4609.994h0l.01,0h0l.012,0h0l0,0h0l.018.008.011,0,.014.006.01,0,.007,0,.014.006h0l.016.007h0l.018.008h0l.022.011.008,0,.014.006.013.006.015.007.028.012" transform="translate(-2576.174 -4605.782)"/><path class="a" d="M2620.752,4609.562h0l.006,0h0l.006,0,0,0h.014l.064.023.087.034h.015l.005,0,.008,0h0l.01,0,0,0,.019.007-.1-.038" transform="translate(-2575.271 -4605.443)"/><path class="a" d="M2625.255,4611.7l.014.01.005,0,.031.02h0l.006,0,.077.05.065.043.031.02-.035-.023-.055-.037" transform="translate(-2578.803 -4607.117)"/><path class="a" d="M2624.156,4611.063h0l.013.007,0,0,.028.017h0l.071.041.006,0,.074.043.036.021-.052-.03-.043-.025" transform="translate(-2577.941 -4606.621)"/><path class="a" d="M2622.579,4610.292l.1.044,0,0h0l.013.006h0l.016.008h0l.019.01.017.008.023.012.015.007,0,0h.005l.022.012.036.018.049.026.013.007-.042-.022-.055-.027" transform="translate(-2576.704 -4606.016)"/><path class="a" d="M2620.81,4609.584l-.043-.016,0,0h0l-.007,0h-.007" transform="translate(-2575.27 -4605.443)"/><path class="a" d="M2619.59,4609.2l.084.024.158.051h.008l-.024-.006-.044-.015-.029-.008" transform="translate(-2574.36 -4605.161)"/><path class="a" d="M2619.639,4609.218h0l-.042-.013h0" transform="translate(-2574.36 -4605.162)"/><path class="a" d="M2613.379,4607.613l.158.035" transform="translate(-2569.489 -4603.915)"/><path class="a" d="M2410.085,4731.553l-.008,0,0,0-.008-.006,0,0-.008-.008,0,0-.008-.009-.007-.009,0,0-.006-.01,0,0-.006-.01,0-.011,0,0,0-.011,0-.012,0,0,0-.011,0-.012v-.021l-.027-2.034v-.011l0-.006,0-.006,0,0,0,0" transform="translate(-2409.967 -4699.363)"/><path class="a" d="M2498.953,4677.014l.067-.048v0l.009-.005.068-.049.019-.014.007,0,.022-.016.029-.021.024-.018.023-.016.023-.017.007,0,.03-.021.029-.021,0,0,.028-.021.008,0,.021-.016.03-.022h0l.027-.02.054-.039.038-.027.037-.026.036-.026.032-.023.159-.115.131-.094.132-.1.2-.144.018-.013.057-.041.018-.013.433-.312.33-.238.025-.018.169-.122.217-.156.292-.21.339-.245.015-.012.485-.349.347-.25,1.769-1.274,1.769-1.274,1.769-1.274.463-.333.135-.1.133-.1.131-.095.127-.091.122-.088.116-.083.108-.079.1-.072,1.769-1.274,1.769-1.274,1.769-1.274,1.769-1.274,1.769-1.274,1.769-1.274,1.8-1.293.041-.03.577-.416.111-.08.3-.215.117-.084.026-.019.538-.387.486-.35.1-.073.095-.068.2-.144.321-.232.052-.037.047-.034.069-.05.168-.122.563-.406.028-.02.03-.021.029-.021.032-.023.038-.027.028-.02.012-.008.034-.024.025-.018,0,0,.026-.02.028-.02h0l.047-.033.023-.017.014-.01,0,0,.008-.006.013-.009.01-.007.019-.013.006,0,.015-.011h0l.005,0,.96-.691.01-.008,1.262-.966,0,0,.008-.007,0,0,.008-.007.007-.009,0,0,.007-.008,0,0,.006-.01,0,0,.006-.009,0-.011,0,0,0-.011,0-.011,0,0,0-.011v-.035l.027-2.041" transform="translate(-2479.752 -4639.785)"/><path class="a" d="M2440.481,4744.982l0-.007,0-.008,0-.009,0-.009,0-.01v-.627l-.08-.021-.08-.02-.5-.13-.827-.215-.037-.009-2.11-.548-1.228-.32-1.243-.323-.782-.2-2.11-.548-.013,0-.052-.013-.079-.021-.113-.029-.11-.029-.26-.068-.012,0-.53-.138,0,.583v.012l-.006.009v.011l.009.012v.01l0,.009,0,.009,0,.008,0,.007,0,.007,0,.006,0,.006" transform="translate(-2425.908 -4709.045)"/><path class="a" d="M2413.2,4740.3l-.919-.258,3.9,1.1" transform="translate(-2411.783 -4707.77)"/><path class="b" d="M2430.277,4719.19v-.149l0-.49v-.092l.011-2.679.008-1.974" transform="translate(-2425.895 -4687.195)"/><path class="a" d="M2613.379,4607.613l.158.035,1,.262.179.046h0l.043.014.277.09" transform="translate(-2569.489 -4603.915)"/><line class="a" x2="4.281" y2="1.227" transform="translate(14.819 36.058)"/></g></g></svg>