<svg xmlns="http://www.w3.org/2000/svg" width="63.14" height="56.981" viewBox="0 0 63.14 56.981">
    <defs>
        <style>.a,.b{fill:none;stroke:#353434;stroke-linecap:round;stroke-linejoin:round;}.b{stroke-width:2px;}</style>
    </defs>
    <g transform="translate(1 1.396)">
        <path class="a"
              d="M1587.58,4633.26l.173.045.062.016.132.035.059.015.3.08.011,0,.177.046.01,0,.339.088.04.011.144.037.038.01.326.084.09.024.088.022.085.022.3.079.139.036.032.008.133.035.282.073.164.043.024.006.155.041.261.068.156.04.08.021.145.038.242.063.146.038.137.036.134.035.223.058.137.035.194.051.121.031.2.054.126.032.251.065.108.028.188.049.114.03.308.08.094.024.17.044.1.026.365.095.08.021.154.04.089.023.422.109.066.018.139.036.075.02.478.125.05.013.123.032.062.016.534.139.035.009.109.028.047.013.466.121.087.021.037.009.02,0,.032.007.066.014.024.005.01,0,.082.016.093.017.095.015.1.014.1.013.1.011.1.009.078.006h.022l.081.005h.018l.1.005h.019l.082,0,.1,0h.2l.1,0h.055l.028,0h.018l.1-.005.1-.006.1-.008.1-.01.1-.011.1-.012.1-.013.095-.016.093-.016.092-.018.091-.02.089-.021.087-.022.086-.023.084-.025.082-.025.08-.027.078-.027.076-.03.073-.03.071-.031.068-.033.066-.033.063-.034.06-.035.058-.036.055-.037.052-.037.047-.037h0l.046-.039.043-.039.008-.009.032-.032.037-.041.033-.041.03-.041.027-.042.024-.042.02-.042.017-.043.014-.043.01-.043.006-.042v0l0-.043v-.044l0-.043-.007-.043-.01-.043-.014-.043-.017-.043-.02-.043-.023-.042-.027-.042-.025-.035,0-.007-.033-.042-.027-.029-.009-.011-.04-.041-.043-.04-.046-.039-.049-.038-.052-.038-.055-.036-.058-.036-.06-.035-.063-.034-.066-.033h0l-.068-.032-.071-.031h0l-.072-.029-.075-.029-.078-.028-.08-.027-.082-.025-.084-.024-.086-.023-.632-.165-1.566-.407-.037-.009-.147-.038-.127-.033-.041-.011-.126-.032-.01,0-.193-.05-.078-.02-.006,0-.067-.017-.332-.087-.024-.006-.256-.067-.014,0-.38-.1-.038-.01-.271-.071-.029-.007-.321-.083-.051-.013-.287-.074-.043-.011-.262-.068-.064-.016-.3-.08-.057-.015-.2-.053-.076-.02-.321-.083-.071-.018-.145-.038-.087-.022-.338-.088-.083-.022-.086-.022-.1-.025-.357-.092-.095-.025-.028-.007-.107-.027-.376-.1-.076-.02-.03-.008-.085-.022-.4-.1-.028-.007-.087-.023-.035-.009-.4-.1-.02-.005-.109-.028-.015,0-.355-.092-.068-.018-.066-.018-.066-.017-.176-.045-.087-.022-.016,0-.073-.017-.049-.01-.023-.005-.019,0-.092-.018-.015,0-.078-.014-.094-.015-.05-.007-.046-.007-.1-.012-.022,0-.028,0-.048-.006-.1-.009-.027,0-.072-.006-.081-.005h-.019l-.1-.005-.067,0H1589l-.079,0-.1,0h-.032l-.068,0-.1.007h0l-.095.008-.1.009h0l-.053.006-.044.005-.1.012-.053.008-.042.006-.094.015-.093.016-.059.012-.034.006-.066.014-.024.005-.089.021-.087.021-.027.008-.059.015-.031.009-.053.016-.082.025-.08.027-.078.028-.076.028-.073.031-.071.031h0l-.065.03-.01,0-.055.028-.063.034-.061.035-.058.036-.055.037-.052.037-.049.038-.046.039-.043.04-.04.04-.036.041-.012.014-.022.027-.009.014-.021.028-.027.042-.024.043-.02.042-.017.042-.014.043-.005.024,0,.02,0,.028,0,.016,0,.043v.043l0,.03v.014l.006.04v0l.01.044.013.043.006.016.011.027.02.042.01.018.014.025.011.018.015.024.03.042.017.021.016.02.022.024.014.016.04.041.043.04.011.009.006,0,.029.025.049.039.052.037h0l.013.008.04.027.058.036.041.023.019.011.044.023.019.01.066.034.048.022.02.01.008,0,.063.028.073.03h0l.075.028.063.023.015,0,.08.027.01,0,.071.022.009,0,.075.021.031.008.055.015"
              transform="translate(-1570.146 -4616.103)"/>
        <path class="a"
              d="M1587.83,4633.333l-.056-.015-.028-.008-.077-.022h0l-.074-.023-.006,0-.078-.026-.021-.007-.055-.02-.074-.028-.01,0-.062-.026-.069-.03,0,0-.028-.013-.035-.017-.065-.032-.033-.018-.029-.016-.034-.02-.026-.015-.056-.035-.054-.036h0l-.013-.01-.036-.025-.048-.038-.045-.038h0l-.006-.005-.036-.033-.039-.039-.031-.035,0-.005-.032-.041h0l-.03-.041-.026-.041,0-.007-.019-.036,0-.008-.016-.034-.017-.042,0-.015-.009-.028-.01-.042-.006-.042h0l0-.042v-.043l0-.043.007-.042.005-.023,0-.019.01-.033,0-.01.017-.042.02-.042.023-.041.027-.042.03-.041.033-.041.036-.041.039-.039.015-.013.027-.025.045-.039.048-.037.051-.037.054-.036.057-.035.017-.01.043-.024.062-.034.065-.032.067-.032.07-.031.072-.029.074-.028.076-.027.078-.026.023-.007.057-.018.039-.011.044-.013.084-.023.086-.021.027-.006.061-.014.043-.009.046-.01.09-.018.092-.016.067-.011.026,0,.094-.014.079-.009.016,0,.039,0,.057-.006.1-.009.042,0,.054,0,.1-.006h.021l.077,0,.1,0h.308l.088,0h0l.1,0,.093,0h.006l.1.007.049,0,.048,0,.1.009.03,0,.027,0,.038,0,.095.012.033,0,.061.009.093.015.069.013.022,0,.09.019.013,0,.023,0,.052.011.07.016.017,0,.086.021.176.046.066.017.067.018.068.018.355.092.015,0,.11.028.02,0,.4.1.036.009.088.023.028.007.4.1.085.022.03.008.076.02.375.1.108.028.027.007.1.025.356.092.1.025.086.022.084.022.338.088.087.022.144.038.071.019.32.083.076.02.2.053.058.015.3.079.064.017.261.068.044.012.286.075.052.013.32.083.03.008.271.07.038.01.379.1.014,0,.255.067.024.006.37.1.043.011.031.008.024.006.21.055.01,0,.125.032.056.015.131.034.167.044.036.009.594.154,1.566.407.084.023.082.024.08.025.078.026.076.027.074.029.035.014.037.016.069.03.035.017.032.015.064.032.062.034.059.034.056.035.054.036.051.036.048.038.045.038.042.039.039.04.005.006.031.034.032.04,0,0,.028.039.026.041.023.042.02.042.017.042.013.042.01.043.007.042,0,.043v.042l0,.043,0,.01,0,.033-.01.042-.013.042-.017.042-.02.042-.023.042-.026.041-.03.041-.033.041-.036.04-.039.039-.018.017-.024.022-.045.038-.034.026-.014.011-.051.037-.054.036-.057.035-.059.035-.062.033-.065.033-.067.031-.07.031-.071.03-.074.028-.076.028-.078.026-.08.025-.082.024-.084.022-.085.021-.087.021-.089.019-.09.018-.091.016-.093.016-.094.013-.095.012-.1.011-.1.009-.1.008-.1.006-.1,0h-.05l-.048,0-.1,0h-.2l-.1,0-.052,0-.047,0-.074,0h-.025l-.1-.006h-.029l-.068-.005-.1-.01-.1-.01-.095-.012-.094-.014-.093-.015-.092-.016-.076-.014-.014,0-.019,0-.07-.015-.029-.007-.019,0-.039-.008-.086-.021-.467-.122-.046-.012-.109-.028-.034-.009-.534-.139-.061-.016-.124-.032-.05-.013-.479-.125-.075-.019-.139-.036-.065-.017-.422-.11-.088-.023-.155-.04-.079-.021-.366-.095-.1-.026-.171-.044-.094-.024-.309-.081-.113-.029-.188-.049-.108-.027-.252-.066-.125-.031-.206-.054-.12-.031-.2-.051-.136-.035-.224-.059-.133-.034-.138-.036-.146-.037-.242-.063-.144-.038-.081-.021-.155-.04-.262-.068-.155-.041-.024-.006-.164-.042-.283-.073-.133-.035-.032-.008-.14-.036-.3-.079-.086-.022-.088-.022-.09-.023-.326-.085-.038-.01-.143-.037-.04-.011-.339-.088-.01,0-.177-.046-.01,0-.3-.079-.059-.015-.131-.034-.062-.016-.174-.045"
              transform="translate(-1570.365 -4616.196)"/>
        <path class="b"
              d="M1544.37,4581.45l.139-.1.138-.1.137-.1.136-.1.135-.1.134-.093.132-.091.13-.09.128-.089.063-.043.062-.042.062-.042.061-.042.06-.042.059-.041.058-.041.058-.04.057-.039.056-.039.055-.039.054-.037.053-.038.052-.036.051-.036.05-.035.049-.035.048-.033.047-.033.045-.032.044-.032.043-.032.394-.284,1.313-.945,1.313-.946,1.313-.946,1.313-.946,1.313-.946,1.313-.945,1.313-.946,1.313-.946,1.313-.946,1.313-.945,1.313-.947,1.313-.945,1.313-.946,1.313-.946,1.313-.946,1.313-.946,1.313-.945,1.313-.946"
              transform="translate(-1537.395 -4562.463)"/>
        <path class="b"
              d="M1529,4616.505l-.571-.16-.57-.179-.569-.2-.567-.219-.565-.238-.561-.257-.557-.277-.553-.294-.548-.312-.542-.33-.535-.348-.529-.365-.521-.381-.513-.4-.5-.413-.495-.429-.485-.443-.474-.458-.463-.471-.452-.485-.44-.5-.427-.509-.415-.521-.4-.532-.387-.542-.373-.552-.358-.561-.343-.57-.327-.577-.312-.584-.3-.591-.279-.6-.262-.6-.244-.607-.227-.61-.209-.613-.191-.616-.173-.618-.155-.619-.136-.618-.117-.619-.1-.617-.079-.616-.06-.613-.041-.61-.022-.605,0-.6.016-.6.036-.59.055-.583.074-.577.093-.568.112-.56.131-.551.149-.541.168-.531.186-.52.2-.508.222-.5.239-.483.257-.471.067-.115.071-.117.074-.117.077-.119.081-.12.083-.12.086-.12.09-.121.092-.122.1-.122.1-.122.1-.123.1-.122.106-.122.108-.122.11-.122.113-.122.115-.121.117-.121.119-.12.12-.119.122-.119.123-.117.125-.117.126-.116.127-.114.128-.114.129-.113.129-.112.13-.11.13-.109.13-.107.13-.106.13-.1.13-.1.13-.1.132-.1.134-.1.136-.1.137-.1.137-.1.138-.1.139-.1.138-.1.619-.446,1.313-.947,1.313-.946,1.313-.945,1.313-.947,1.313-.945,1.313-.946,1.313-.946,1.313-.946,1.313-.945,1.313-.946,1.313-.946,1.313-.946,1.313-.946,1.313-.946,1.313-.946,1.313-.946,1.313-.946,1.313-.946,1.313-.946.423-.293.435-.275,1.258.327,19.007,4.94"
              transform="translate(-1512.045 -4562.463)"/>
        <path class="b"
              d="M1670.364,4588.392l-.74.533-.615.443-.076.054-.078.056-.145.1-.489.353-1.071.772-.14.1-.019.014-.126.091-.077.055-1.218.878-.269.193-1.313.946-.483.348-.946.682-.889.64-1.313.946-1.313.945-1.313.946-.23.166-.078.056-.321.231-.17.123-.065.047-1.313.946-.319.23-.495.356-.316.228-.507.364-.058.042-.3.214-.381.275-1.128.812-.127.092-1.313.946-1.313.946-1.313.946-1.313.946-.223.161-.077.055-.038.028-.02.015-.022.017-.041.032-.04.035-.038.034-.037.037-.036.038-.035.039-.033.04-.032.042-.031.042-.03.044-.029.045-.028.046-.026.047-.025.048-.013.026-.011.023-.023.05-.022.051-.02.053-.019.054-.018.054-.017.055-.03.114-.026.117-.02.11,0,.01-.017.124-.014.126-.009.129-.006.132,0,.134v.135l0,.138.007.139.01.14.013.141.015.142.017.142.02.143.022.142.023.142.025.143.027.146.03.148.031.149.033.151.035.153.037.154.039.157.041.157.042.158.043.161.045.16.047.162.048.163.049.163.051.164.052.165.053.165.054.165.055.165.056.165.057.165.058.164.059.164.06.164.061.162.061.162.062.16.063.16.063.159.064.156.065.155.065.153.065.152.065.15.257.6.239.608.222.611.2.614.186.616.168.618.149.619.13.618.112.618.093.617.074.615.055.612.036.609.016.6,0,.6,0,.045-.021.549-.016.234-.025.354-.06.582-.08.574-.1.566-.117.558-.136.548-.155.539-.173.527-.191.516-.209.5-.227.493-.245.479-.262.466-.216.35-.063.1-.3.438-.311.422-.328.407-.343.391-.358.375-.373.358-.387.341-.4.323-.415.305"
              transform="translate(-1615.442 -4582.797)"/>
        <path class="b" d="M1590.852,4812.75" transform="translate(-1573.848 -4758.746)"/>
        <path class="b"
              d="M1627.512,4586.876l1.258.327.435.5.423.513.41.525.4.535.382.545.367.555.353.564.337.571.321.58.306.586.289.593.273.6.256.6.238.607.22.612.2.613.185.616.166.617.148.618.13.618.111.618.092.616.073.614.054.611.035.608.015.6,0,.6-.023.594-.042.587-.061.581-.08.573-.1.565-.118.557-.137.547-.155.537-.173.526-.192.516-.209.5-.228.491-.245.479-.262.465-.279.451-.3.437-.312.422-.327.406-.343.391-.358.375-.373.357-.387.339-.4.324-.415.3-.914.658-1.313.946-1.313.946-1.313.946-1.313.946-1.313.946-1.313.946-1.313.946-1.313.946-1.313.946-1.313.946-1.313.946-1.313.946-1.313.945-1.313.946-1.313.946-1.313.946-1.313.946-1.313.946-1.313.946-1.313.946-.428.287-.44.269-.452.25-.464.23-.474.211-.485.191-.495.171-.5.151-.513.131-.521.111-.529.09-.535.07-.542.048-.548.028-.553.007-.558-.014-.561-.035-.565-.055-.567-.076-.569-.1-.57-.117-.571-.137"
              transform="translate(-1573.848 -4581.609)"/>
    </g>
</svg>
