<svg xmlns="http://www.w3.org/2000/svg" width="50" height="52" viewBox="0 0 52.443 53.826">
    <defs>
        <style>.a,.b{fill:none;stroke:#353434;stroke-linecap:round;stroke-linejoin:round;}.a{stroke-width:2px;}</style>
    </defs>
    <g transform="translate(1 1)">
        <path class="a"
              d="M1263.459,4575.439l.016-.669.015-1.619v-.013l.013-.254,0-.034,0-.035.051-.252.008-.034.01-.033.089-.25.012-.032.014-.032.126-.246.017-.029.018-.029.161-.242.02-.026.2-.236.021-.024.232-.229.022-.022.264-.222.024-.019.3-.213.024-.016.326-.2.025-.014.355-.193.382-.183.023-.01.408-.171.432-.16.456-.147.019-.006.475-.133.494-.12.511-.106.526-.092h.012l.536-.077.546-.061.554-.045.56-.03.563-.014.564,0,.563.017.559.033.553.049.544.064.534.079.012,0,.523.094.508.109.49.122.471.137.019.005.078.026"
              transform="translate(-1245.309 -4568.861)"/>
        <path class="a"
              d="M1277.445,4572.291h0l0,0h0c4.239,1.456,3.979,3.051,3.979,3.051v6.023l.007.1-.02.241v.016l-.034.146-.026.11-.034.088-.064.166-.007.015-.128.236-.173.246-.209.241-.245.235-.075.06,0,0-.2.165-.112.078-.1.067-.106.074-.345.209-.376.2-.316.147-.089.041-.35.143-.083.034-.458.164-.142.044-.059.019-.28.087-.461.126-.042.011-.523.123-.54.107-.555.093-.423.057-.145.02-.578.061-.586.044-.592.028-.38.007-.172,0h-.2l-.433,0-.237-.009-.355-.013-.588-.039-.581-.055-.572-.072-.546-.085-.014,0-.545-.1-.529-.118-.51-.132-.489-.147-.009,0-.359-.123-.084-.029-.014-.005-.318-.125-.069-.027-.054-.021-.414-.185-.386-.2-.162-.094-.193-.112-.233-.155-.076-.051-.015-.01-.291-.224-.256-.232-.221-.239h0l-.184-.244-.148-.25-.093-.212-.017-.041-.072-.255-.034-.257,0-.134,0-.12v0l.044-.257.015-.046"
              transform="translate(-1245.015 -4571.551)"/>
        <path class="b"
              d="M1240.466,4746.958l.161.047.129.047.031.011.159.068.157.078.151.087,0,0,.151.1.08.058.067.048.074.06.069.056.126.114.011.01.132.131.125.138h0l.119.145.051.068.061.083.057.085.047.07.1.159v0l.088.165.03.064.049.1.07.17,0,0,.059.168.015.052.036.122.041.174,0,.021.023.127,0,.026.021.173.01.171v.169l-.007.119,0,.048-.015.114-.006.048-.031.159-.007.026-.028.107,0,.02-.04.116-.011.032-.06.141,0,.007-.012.023-.054.1-.012.019-.05.081-.017.028-.075.1-.012.017-.1.11-.1.1-.112.092-.119.083-.126.073-.132.063-.1.037-.014.005-.024.009-.143.042-.124.025-.023,0-.08.01-.067.008h0l-.125.006h-.187l-.065-.006-.093-.009-.16-.025-.1-.023-.056-.013-.2-.051-.057-.015-.551-.144-.143-.037-.53-.138-.043-.011-.626-.163-.078-.021-.544-.141-.151-.04-.63-.164-.024-.006-.546-.143-.266-.069-.6-.157-.018,0-.518-.135-.39-.1-.553-.144-.046-.012-.467-.122-.519-.134-.5-.131-.06-.016-.418-.109-.653-.17-.454-.118-.058-.015-.371-.1-.225-.059-.161-.047-.16-.058-.159-.068-.026-.014-.131-.065-.154-.088-.021-.014-.043-.028-.086-.056-.138-.1-.009-.007-.143-.116-.138-.124-.132-.131-.1-.107-.028-.031-.119-.145-.021-.029-.056-.076-.034-.047-.087-.129-.018-.027-.1-.16-.088-.165-.079-.167-.059-.145-.011-.026-.06-.173,0-.006-.048-.167,0-.013-.038-.162v-.007l-.029-.167-.021-.173-.01-.172v-.169l.01-.167,0-.041.015-.121.016-.08.015-.078.041-.153.05-.147.052-.121.009-.02.07-.134.016-.026.063-.1.088-.119.1-.111.1-.1.112-.093.119-.083.126-.073.132-.062.138-.052.143-.041.046-.01.1-.021.031,0,.12-.015.154-.008.157,0,.159.014.16.025.13.029.031.007.111.029.71.185.111.028.748.194.191.05.561.146.16.042.774.2.246.064.413.107.214.056.782.2.305.079.268.069.272.071.771.2.367.1.129.033.333.087.741.192.427.111h0l.392.1.693.18.368.1.128.033.024.006"
              transform="translate(-1217.276 -4706.379)"/>
        <path class="a"
              d="M1197.489,4599.349l-.643.463-1.313.946-1.313.946-1.313.946-1.313.946-1.313.946-.1.068-.1.07-.11.073-.114.075-.119.077-.124.079-.127.08-.13.081-.134.083-.077.047-.059.036-.138.085-.122.075-.018.011-.141.086-.151.093-.135.083-.169.1-.119.074-.18.112-.111.069-.269.169-.022.015-.266.169-.025.016-.259.168-.031.02-.251.166-.037.025-.245.166-.04.027-.245.17-.037.025-.046.033-.232.165-.274.2-.27.2-.265.2-.259.208-.254.209-.248.211-.241.213-.234.215-.226.216-.218.217-.21.218-.2.219-.191.219-.181.218-.17.218-.6.866-.539.92-.475.971-.408,1.018-.339,1.06-.27,1.1-.2,1.133-.127,1.162-.055,1.187.018,1.207.09,1.222.162,1.232.233,1.237.3,1.239.373,1.234.441,1.224.506,1.21.57,1.19.632,1.167.691,1.138.747,1.1.8,1.067.851,1.025.9.979.94.929.98.875,1.015.818,1.046.756,1.073.694,1.1.627,1.115.559,1.128.487,1.138.414,1.143.339"
              transform="translate(-1179.339 -4592.771)"/>
        <path class="a" d="M1262.711,4806.333" transform="translate(-1244.722 -4755.094)"/>
        <path class="a" d="M1262.711,4806.333" transform="translate(-1244.722 -4755.094)"/>
        <path class="a" d="M1263.3,4806.487" transform="translate(-1245.187 -4755.214)"/>
        <path class="a"
              d="M1263.322,4653.131l1.143.255,1.138.178,1.128.1,1.115.022,1.1-.058,1.073-.136,1.046-.213,1.015-.291.98-.365.94-.44.9-.512.851-.583.31-.252.109-.088.381-.31.345-.33.2-.2.2-.19.323-.363.281-.316.088-.1.293-.389.338-.449h0l.14-.22,0-.006.015-.023.045-.07.016-.025.022-.034.021-.034.034-.053.106-.166.022-.034.039-.06.092-.145.015-.023.054-.1.076-.142.007-.013.036-.067.063-.117.032-.06.2-.377.019-.037.018-.034,0-.007.091-.2,0-.007.11-.25.078-.177.033-.075.013-.03.1-.219.012-.026.126-.351.039-.109.014-.04.012-.033.042-.117.054-.151.085-.238.086-.305.02-.071.034-.121.011-.039.016-.058.019-.07.073-.258.045-.158.007-.036.029-.137.015-.068.016-.075.143-.683.024-.116.008-.059.01-.066,0-.025.031-.219v0l.014-.1.043-.305.007-.049v-.015h0l0-.018v-.02l0-.023,0-.015,0-.018.007-.048,0-.023.007-.054,0-.026,0-.012,0-.025v0h0v-.064l0-.023v-.014l0-.027.071-.923,0-.065.006-.075,0-.212,0-.3,0-.128,0-.215h0v-.007h0v0h0v-.015h0v-.316l0-.1,0-.048v-.005h0l-.007-.153v-.005l0-.075-.007-.146-.012-.264,0-.047,0-.046v-.025l0-.048v-.014l0-.046v-.014l0-.047,0-.05h0l0-.036v-.035h0v-.008l-.007-.073,0-.015,0-.018,0-.02,0-.028v-.023l-.006-.053,0-.02v0l-.007-.07v0l0-.024v-.008l0-.026v-.007l0-.024v-.053l0-.037v-.014l0-.018,0-.018h0v-.028l0-.039,0-.015,0-.046v-.021l0-.029v-.019l0-.04h0l0-.025,0-.045,0-.037v-.006l0-.017h0l-.005-.053-.011-.106,0-.038-.006-.058-.005-.053,0-.019-.009-.055-.025-.156-.009-.056-.012-.074-.025-.154,0-.015-.016-.1-.009-.059-.02-.123-.009-.058-.012-.072-.011-.066,0-.021-.007-.044h0l-.026-.165-.134-.616-.031-.142-.012-.057-.093-.424-.024-.088-.02-.073,0-.007-.019-.069-.115-.417,0-.012-.011-.04,0-.018-.008-.03v-.007l-.01-.038v-.005l-.007-.023,0-.019,0-.008,0-.005-.006-.022v-.005l0-.006-.008-.029-.008-.031,0,0-.009-.031,0-.006-.014-.053,0-.007,0-.006-.016-.057v0l-.014-.051-.016-.058h0l-.021-.063-.011-.033-.027-.081-.041-.125-.059-.176-.005-.015-.008-.025-.005-.017h0l-.017-.053-.024-.071-.008-.023-.01-.03,0-.012-.032-.1-.007-.021-.011-.034-.019-.056-.031-.095-.057-.173-.009-.026-.048-.123-.025-.065-.032-.083-.005-.013-.012-.031-.068-.173-.039-.1-.009-.024-.02-.052-.029-.075-.049-.126-.047-.119-.042-.107h0l-.016-.042-.033-.083,0-.006-.066-.148-.078-.173-.021-.048-.039-.087-.046-.1h0l-.01-.024-.012-.027-.027-.06-.053-.118,0,0-.024-.054-.045-.1-.018-.041,0-.007v0h0l-.005-.012-.006-.012-.016-.035-.048-.107-.013-.028-.145-.284-.02-.039-.037-.073-.026-.051-.02-.04-.017-.032-.019-.038-.006-.012-.011-.021-.007-.014-.033-.063h0l-.044-.087-.031-.061,0-.007h0l-.029-.056-.012-.023-.018-.035,0,0-.077-.151-.019-.037-.026-.05-.061-.115-.047-.088-.054-.1-.007-.012-.016-.031-.03-.058h0l-.041-.078-.026-.051-.04-.078-.049-.1-.011-.022-.033-.066-.021-.041-.042-.083-.041-.083-.006-.013-.064-.131-.024-.049,0,0-.015-.03-.036-.076-.017-.035h0l-.053-.111,0,0-.028-.059-.012-.025-.065-.139-.023-.051-.049-.105-.008-.017-.009-.018-.028-.063-.074-.164-.028-.061,0-.006-.057-.128,0-.011h0l-.049-.112-.026-.06,0-.008-.026-.061-.057-.132-.035-.082-.008-.019,0-.009-.036-.086-.063-.15-.03-.072h0l-.042-.1-.037-.091h0l-.006-.015-.026-.065-.013-.032-.048-.123-.026-.067-.031-.077-.009-.023h0l-.005-.014-.039-.1-.009-.024-.032-.083-.019-.049-.017-.045-.083-.228-.021-.059h0l-.005-.014-.011-.031-.006-.018-.069-.2-.005-.017-.012-.035-.042-.127-.026-.078-.019-.059-.006-.016,0-.016-.009-.027-.006-.02-.076-.245-.02-.067-.021-.071h0l-.022-.076-.021-.074-.005-.02-.017-.064-.053-.2-.011-.047,0-.012-.009-.04-.015-.063-.019-.08-.01-.039-.023-.11-.02-.1-.014-.066-.016-.093h0l0-.021-.005-.031-.009-.054-.006-.033-.006-.038,0-.023-.031-.241h0l0-.046,0-.066v-.018l-.01-.128v-.1l0-.148,0-.047,0-.043V4620l0-.034,0-.026,0-.028v-.016l0-.035,0-.025,0-.016v-.024l.005-.027.007-.038v-.012l.007-.037.026-.111.01-.032.022-.074.021-.057.017-.046.028-.061.017-.038,0-.01.014-.025,0-.006h0l0-.009h0l.023-.042.031-.048v0l.005-.008.02-.032.026-.031.01-.013.1-.12.078-.074.495-.356,1.313-.946.111-.08.13-.094.043-.031.157-.113.142-.1,0,0,.037-.026.07-.051.123-.089,0,0,.1-.072.087-.063.142-.1.059-.043.052-.037.031-.022.018-.013.213-.153.153-.11.532-.384.387-.278.145-.1.113-.082.8-.579.9-.647.157-.112.026-.019.028-.02.162-.117.128-.092.041-.03.031-.022.012-.009.084-.06.185-.134.1-.074.093-.067.039-.028.084-.061.049-.036.032-.022.065-.047.046-.033h0l.066-.048.045-.033.14-.1h0l.056-.04.026-.019.14-.1.091-.065.132-.1.016-.012.15-.108.12-.086.3-.217.026-.02.029-.02.006,0,.024-.017.006,0,0,0,.02-.014.023-.018h0l0,0,.032-.022.066-.047.028-.02.127-.092.047-.034.022-.016.087-.062.065-.047.041-.03.053-.038.017-.012.048-.035.015-.01.04-.029.043-.031.052-.037.029-.021.009-.006.005,0,.057-.041.017-.013.106-.077.048-.034.021-.015.04-.029.02-.014h0l.025-.018.031-.022.016-.012h0l.048-.035.012-.009.057-.041.014-.01.015-.011.039-.028.016-.011.039-.028.011-.007.019-.014.045-.032.04-.029.018-.013,0,0,.035-.025.023-.016.009-.006.022-.016.024-.017.026-.019.012-.008.012-.01.016-.005.02-.007h.006l.023-.008.018-.006h0l.022-.007h.009l.019,0h0l.026,0h.084l.023,0h.006l.03,0,.009,0,.019,0h0l.03.006.031.007.061.017.044.014h.005l.013,0,.018.007.012,0,.01,0,.021.007.061.025.022.01.01,0,.029.013.039.019.017.008h0l.061.031.013.007.005,0,.028.016.013.008.031.018,0,0h0l.071.042,0,0,.007,0,.06.039h0l.036.023.018.012.01.006.009.007.062.043h0l.033.023.1.075h0l.015.012.02.017.027.023.008.006.016.013.038.032.063.057.042.039.1.1.032.034.006.007.059.062.123.142.015.018.009.01.026.031.045.051.027.031.065.075.029.033.248.287.038.044.111.128.035.041.02.023.027.032.074.085.055.07.006.008.036.046.111.142.058.073,0,0,.035.044.025.032.018.023.014.018.011.015,0,0,.007.008.011.014.014.018,0,0,.038.048.005.007.009.012.028.036.009.011,0,0,.034.044.012.015.029.037.007.009.05.063.018.023.013.018.02.026.021.026.03.038,0,0,.024.029.032.042.026.032.025.033,0,.008.026.036.028.04.027.04.027.038.029.041.026.038.013.018.016.023.026.037.028.04.028.04.029.042.027.037.016.023.012.017.027.038.009.013.046.065.026.037.028.04.01.014.014.021.028.041.022.031.03.042.019.028.031.044.017.023.032.045.014.02.032.045.011.017.017.024,0,.007,0,.006.006.01.008.013.022.034.01.015.006.008.031.05,0,0,.031.05h0l.012.018.025.041.012.02.011.018.009.014.082.13.028.045,0,0,.078.124.059.094h0l.072.114.006.011.037.058.013.021.053.083.059.093.014.023.019.031.018.028.108.191h0l.026.045.149.266.011.019.035.063.017.031.082.146.016.029.048.085.036.063.054.1.069.123.016.029.08.162.043.087.042.084.037.075.025.051.051.1.012.023.008.016.05.1.041.083.03.062.084.168.046.091.006.012.047.1.011.027.006.014.026.06.037.086.043.1.007.017.016.036.028.064.035.079.027.062.092.211.017.039.008.019.051.116.007.015.007.018.1.224.015.034,0,.006,0,.009.011.028.13.348.077.207.016.041.037.1.028.076.034.091.006.017.021.055.044.118.017.044.037.1.01.027.055.176h0l.031.1h0l.033.1.034.109,0,.008.021.069.041.13.037.118.006.018.055.176.041.131.009.03,0,.011,0,.014.021.067.016.06v0l.036.14.045.172.048.188.038.15.006.021.014.056.023.091.052.2.022.087.024.1.016.083.03.153.028.143,0,.017,0,.009.035.176.015.074.005.026h0l.033.167.021.106,0,.024.037.185.005.025,0,.017.012.063.011.075.011.077.013.092.009.066.015.11.007.047v0l0,.011.02.145.016.116.016.115.02.142.006.044.006.041.025.178,0,.045.016.2,0,.014.011.13,0,.063.008.1v.006l.011.137.015.178.009.113,0,.039,0,.034.01.119,0,.053,0,.029v.017l0,.153,0,.1v.059l0,.055,0,.144v.046l0,.1v.01l0,.07v.1l0,.046,0,.083v.055l0,.059v.08l0,.068h0l0,.049,0,.112,0,.061h0v.02l0,.026v.015l0,.047h0l0,.076,0,.071v.009h0v.021h0v0h0l0,.045,0,.046-.006.151v.016l0,.079v.021l0,.031v0l-.006.161v.014l-.006.134,0,.041-.021.2,0,.032h0l0,.016-.012.114-.021.2h0l0,.015-.007.07,0,.034,0,.026-.009.085,0,.012h0l0,.019,0,.027,0,.026,0,.007h0l-.008.073h0l0,.013v0l0,.009,0,.015h0l0,.018v.007h0l-.013.123-.013.077-.023.134-.019.107-.026.152-.022.125-.021.119-.024.136,0,.023-.011.064-.008.043,0,.009-.011.063-.008.044,0,.014,0,.021-.005.03-.275,1.126-.349,1.085-.421,1.041-.49.991-.558.938-.624.88-.687.819-.747.754-.8.687"
              transform="translate(-1245.201 -4601.859)"/>
        <path class="a"
              d="M1335.451,4748.306l-1.448,1.044-1.313.947-1.312.947-1.313.946-1.312.946-1.313.947-1.312.947-1.313.946-1.312.947-1.313.946-1.313.946"
              transform="translate(-1290.338 -4709.587)"/>
        <path class="a" d="M1262.711,4806.333l.128.033" transform="translate(-1244.722 -4755.094)"/>
        <path class="a" d="M1263.46,4599.349" transform="translate(-1245.309 -4592.771)"/>
        <path class="a" d="M1371.667,4612.447" transform="translate(-1330.169 -4603.042)"/>
        <line class="a" y1="3.062" x2="0.032" transform="translate(18.118 6.433)"/>
        <line class="a" x1="5.606" y1="1.6" transform="translate(36.399 7.485)"/>
    </g>
</svg>
