<svg version="1.1" id="Warstwa_2" xmlns="http://www.w3.org/2000/svg" x="0" y="0" viewBox="0 0 2048 2048"
     style="enable-background:new 0 0 2048 2048" xml:space="preserve">
    <style>.st0{fill:none;stroke:#3c3f40;stroke-width:74;stroke-linecap:round;stroke-miterlimit:10}</style>

    <path class="st0" d="M223.06 1709.56V439.1l100.79-79.51 1471.08 386.82M223.06 439.1 1720.6 828.63"/>
    <path class="st0" d="m461.46 395.78 186.33-70.46 1207.86 314.76"/>



    <path class="b"
          d="m1172.01 1665.06-432-110.67c-36.35-9.31-65.82-46.33-65.82-82.68v-432c0-36.35 29.47-58.27 65.82-48.96l432 110.67c36.35 9.31 65.82 46.33 65.82 82.68v432c0 36.35-29.46 58.27-65.82 48.96z"
          style="fill:none;stroke:#3c3f40;stroke-width:53;stroke-linecap:round;stroke-linejoin:round;stroke-miterlimit:10"/>
    <path class="b"
          d="M850.67 1384.83c-16.37-4.21-29.64 17.68-29.64 36.54s13.27 47.56 29.64 51.77l.05.01 206.57 53.08c16.37 4.21 29.64-17.68 29.64-36.54s-13.27-47.56-29.64-51.77l-206.57-53.08"
          style="fill:none;stroke:#3c3f40;stroke-width:40;stroke-linecap:round;stroke-linejoin:round;stroke-miterlimit:10"/>
</svg>