<svg version="1.0" xmlns="http://www.w3.org/2000/svg"
 width="150.000000pt" height="150.000000pt" viewBox="0 0 150.000000 150.000000"
 preserveAspectRatio="xMidYMid meet">
<g transform="translate(0.000000,150.000000) scale(0.008465,-0.008470)"
fill="#000000" stroke="none">
<path d="M4018 16400 l-917 -348 -698 184 c-437 116 -711 183 -733 182 -29 -3
-143 -89 -673 -507 l-637 -503 2 -6517 3 -6516 24 -44 c35 -67 117 -147 180
-178 51 -26 66 -28 171 -28 106 0 120 2 172 28 74 36 159 128 190 204 l23 58
3 6135 c1 3374 6 6138 10 6142 5 5 3262 -839 7238 -1874 l7229 -1882 115 0
c98 -1 122 2 163 21 65 30 152 120 184 189 35 77 43 205 18 290 -30 103 -121
202 -218 238 -34 13 -9059 2362 -13182 3432 -561 145 -1033 270 -1048 277
l-28 12 116 91 117 91 46 -13 c26 -7 2659 -700 5852 -1539 3193 -840 6410
-1685 7150 -1880 740 -194 1383 -363 1430 -376 97 -25 211 -23 291 6 69 24
152 103 191 183 32 64 33 71 33 187 0 114 -1 123 -30 173 -36 67 -130 155
-187 176 -24 9 -2772 733 -6107 1610 -3334 877 -6067 1598 -6072 1603 -10 10
553 228 581 226 15 -2 4457 -1158 9425 -2455 2399 -626 2535 -660 2620 -661
124 -1 179 18 259 94 44 41 72 78 92 121 26 57 29 73 29 173 0 92 -4 118 -22
158 -30 64 -121 158 -180 185 -27 12 -1474 394 -3218 848 -1743 454 -4490
1169 -6103 1590 -1613 420 -2945 764 -2960 763 -15 -1 -440 -158 -944 -349z"/>
<path d="M5534 9971 c-211 -52 -385 -196 -480 -396 -87 -182 -79 64 -79 -2545
l0 -2315 27 -97 c54 -196 144 -352 296 -510 134 -139 264 -230 409 -287 62
-24 4428 -1144 4528 -1162 100 -17 311 -6 405 21 242 70 424 263 503 532 l21
73 4 2265 c2 1581 0 2290 -8 2348 -31 240 -143 462 -325 647 -146 148 -302
246 -475 299 -111 34 -4362 1122 -4437 1135 -89 17 -306 12 -389 -8z m2441
-1101 c2350 -602 2282 -583 2400 -677 63 -50 123 -128 169 -219 71 -141 66 34
66 -2380 0 -2377 3 -2243 -55 -2312 -38 -45 -118 -76 -180 -69 -27 3 -666 164
-1420 357 -753 193 -1736 445 -2182 560 -537 137 -834 218 -875 238 -135 64
-231 160 -304 305 -69 136 -64 -35 -62 2399 l3 2203 21 40 c12 22 30 48 41 57
31 28 106 58 148 58 22 0 1026 -252 2230 -560z"/>
<path d="M6864 5961 c-106 -27 -219 -132 -283 -264 -56 -114 -71 -180 -71
-317 0 -147 24 -248 90 -387 63 -130 177 -256 273 -302 42 -21 392 -115 1102
-298 l1040 -268 115 0 c101 1 121 4 165 25 80 38 175 140 223 240 57 117 72
182 72 321 0 163 -39 307 -121 446 -46 77 -167 204 -227 236 -35 19 -361 107
-1103 299 -965 248 -1062 271 -1149 274 -52 2 -109 -1 -126 -5z m1139 -690
c554 -142 1018 -266 1030 -274 49 -32 127 -218 127 -301 0 -41 -29 -118 -48
-130 -13 -8 -1987 498 -2031 521 -59 31 -141 206 -141 301 0 40 35 142 49 142
3 0 459 -117 1014 -259z"/>
</g>
</svg>
