<svg xmlns="http://www.w3.org/2000/svg" width="91.133" height="78.498" viewBox="0 0 91.133 78.498"><defs><style>.a,.b{fill:none;stroke:#353434;stroke-linecap:round;stroke-linejoin:round;}.b{stroke-width:2px;}</style></defs><g transform="translate(1.219 1)"><path class="a" d="M2046.827,4791.4l.073.177.082.175.091.171.1.167.108.163.116.157.124.151.131.143.137.137.143.128.148.12.153.111.157.1.16.092.163.082.165.071.167.06.167.049.847.22,1.566.407,1.566.407,1.566.407,1.566.408,1.567.407,1.566.407.167.038.167.026.165.015.163,0,.161-.008.157-.02.153-.031.148-.043.143-.053.137-.065.131-.075.124-.086.117-.1.108-.106.1-.115.092-.124.082-.132.073-.14.063-.146.053-.153.042-.159.032-.165.021-.168.011-.173v-.176l-.011-.179-.021-.18-.032-.181-.042-.182-.053-.181-.063-.18-.073-.178-.082-.175-.092-.171-.1-.167-.108-.162-.117-.157-.124-.15-.131-.144-.137-.137-.143-.128-.148-.121-.153-.111-.157-.1-.161-.092-.163-.082-.165-.071-.167-.061-.167-.049-.847-.22-1.566-.407-1.566-.407-1.566-.407-1.566-.408-1.566-.407-1.566-.407-.167-.038-.167-.026-.165-.015-.163,0-.16.009-.157.02-.153.031-.148.043-.143.055-.137.065-.131.076-.124.085-.116.1-.108.1-.1.116-.091.123-.082.132-.073.14-.063.147-.053.153-.042.159-.032.165-.021.168-.011.173v.176l.011.179.021.18.032.181.042.182.053.181.063.18" transform="translate(-2013.77 -4728.442)"/><path class="a" d="M2059.833,4791.334l.161.047.16.058.159.068.157.079.154.088.151.1.147.107.143.115.138.124.132.131.126.138.119.145.112.15.1.156.1.161.088.165.079.168.07.17.06.173.051.173.041.174.031.174.021.173.01.172v.169l-.01.166-.021.163-.031.158-.041.153-.051.147-.06.141-.07.134-.079.127-.088.119-.1.11-.1.1-.112.093-.119.083-.126.073-.132.063-.138.052-.143.042-.147.03-.151.019-.154.008-.157,0-.159-.014-.16-.026-.161-.037-.847-.22-1.566-.407-1.566-.407-1.566-.407-1.566-.407-1.566-.408-1.566-.407-.161-.047-.16-.058-.159-.069-.156-.078-.155-.088-.151-.1-.147-.107-.143-.116-.137-.124-.132-.131-.126-.138-.119-.146-.112-.15-.1-.156-.1-.161-.088-.165-.079-.168-.07-.17-.06-.173-.051-.174-.041-.174-.031-.174-.021-.172-.01-.172v-.169l.01-.166.021-.163.031-.158.041-.153.051-.147.06-.141.07-.134.079-.127.088-.119.1-.11.1-.1.112-.092.119-.083.126-.073.132-.062.137-.052.143-.042.147-.029.151-.02.155-.008.156,0,.159.014.16.026.161.036.847.22,1.566.407,1.566.407,1.566.407,1.566.407,1.566.407,1.566.407" transform="translate(-2014.142 -4728.845)"/><path class="b" d="M1974.265,4511.91l.114-.082.049-.033.051-.028.053-.025.055-.019.057-.016.059-.012.061-.008.062,0h.063l.064.005.064.011.064.014.414.108.609.158.029.008.474.123.019,0h0l.065.017.009,0h0l.074.02h0l.073.019h0l.071.018h0l.069.018h0l.066.017h.005l.07.019.249.064.042.011.039.011.026.007.011,0,.016,0,.018,0,.007,0,.023.006h0l.02,0,.01,0,.01,0,.018,0h0l.018,0,.008,0,.009,0,.016,0h0l.015,0,.009,0h.007l.013,0h0l.009,0h.014l6.906,1.795,1.566.407,1.566.407,1.566.407,1.566.407,1.566.407,1.566.407,1.566.406,1.566.408,1.566.407,1.567.408,1.566.407,1.566.407,1.566.407,1.566.407,1.567.407,1.566.407,1.566.408,1.566.407,1.566.407,1.567.407,1.566.407,1.566.407,1.566.407,1.566.407,1.567.407,1.566.408,1.566.407,1.566.407,1.566.407,1.566.407,1.566.407,1.566.408,1.566.406,1.566.408,1.566.407,1.566.407,1.566.407,1.566.407,1.566.407" transform="translate(-1957.038 -4511.686)"/><path class="b" d="M2011.9,4680.61l.011-.007.13-.087.1-.067.254-.141.266-.121.277-.1.287-.079.3-.058.3-.036.309-.015.314.008.318.029.32.052.161.037.158.036h0l.015,0,.271.07.04.01.27.071,1.509.392,1.566.407,1.667.434,1.566.407,1.566.407,1.566.407,1.566.407,1.566.407,1.566.407,1.566.407,1.566.407,1.566.407,1.566.407.082.024.05.015.19.055.076.027.244.087.072.031.056.024.19.081.068.034.058.028.188.093.064.036.06.034.185.1.061.039.061.039.181.116.058.041.238.171.055.043.062.049.171.136.051.045.061.055.164.145.049.047.061.059.157.153.046.049.059.064.149.16.043.051.058.068.141.167.041.054.187.245.038.056.053.077.122.176.035.057.051.081.111.181.033.059.047.086.1.182.03.061.044.089.09.184.027.063.04.093.079.184.024.065.1.278.021.067.031.1.056.18.018.07.026.1.046.176.015.072.021.1.035.172.011.074.016.108.024.165.007.078.023.267,0,.081,0,.111,0,.149v22.085l-.005.184,0,.152-.013.146,0,.048-.012.136-.016.1,0,.025-.03.194-.011.05-.005.023-.053.238-.09.3-.109.29-.128.277-.146.264-.164.249-.181.233-.2.216-.213.2-.122.1-.088.069-.018.014-.241.161-.254.142-.266.121-.277.1-.287.079-.3.058-.3.036-.309.014-.314-.008-.318-.03-.32-.052-.321-.073-.64-.166-1.566-.408-1.566-.407-1.566-.407-1.566-.407-1.566-.407-1.566-.407-1.566-.408-1.566-.407-1.566-.407-1.566-.408-1.566-.407-1.566-.407-1.566-.407-.322-.094-.32-.115-.318-.135-.314-.155-.309-.175-.3-.193-.3-.211-.287-.228-.277-.245-.266-.259-.254-.273-.241-.287-.228-.3-.213-.309-.2-.319-.181-.327-.164-.334-.146-.339-.128-.344-.109-.347-.09-.349-.07-.348-.05-.347-.03-.346-.01-.34v-22.085l.01-.335.03-.33.05-.321.07-.312.09-.3.109-.29.128-.277.146-.264.164-.249.181-.232.2-.216.213-.2.228-.18" transform="translate(-1985.284 -4643.604)"/><path class="b" d="M1973.5,4557.821l-1.566-.407-1.566-.407-1.566-.407-1.566-.408-1.566-.407-1.566-.407-1.566-.407-1.566-.407-1.566-.407-1.566-.407-1.566-.407-1.566-.407-1.566-.407-1.566-.408-1.566-.407-1.566-.407-1.566-.407-1.567-.407-1.566-.407-1.566-.407-.3-.079-1.567-.407-1.566-.408-1.566-.407-1.566-.407-1.566-.407-1.566-.407-.194-.051-1.566-.407-1.566-.407-1.566-.407-1.566-.407-1.566-.407-1.566-.407-1.566-.407-1.566-.408-1.566-.407-1.566-.407-1.566-.407-1.344-.349-1.566-.407-1.566-.407-1.566-.408-.25-.065-1.567-.407-1.566-.407-1.566-.407-.536-.14-1.566-.407-1.566-.407-1.411-.367-.945-.246-1.566-.407-1.566-.407-.478-.124" transform="translate(-1894.426 -4531.749)"/><path class="b" d="M1904.632,4517.147l.736-.531,1.313-.946,1.313-.946.032-.021.035-.021.038-.02.041-.019.044-.018.046-.016.048-.016.05-.014.052-.012.054-.011.056-.01.057-.008.057-.007.059,0,.153-.01,1.614-.111,1.615-.11,3.031-.213h.02" transform="translate(-1902.43 -4513.565)"/><path class="b" d="M1894.426,4601.2v-71.229l0-.026.008-.026.012-.026.015-.025.019-.024.023-.024.026-.023.029-.023,2.067-1.49" transform="translate(-1894.426 -4524.703)"/><path class="b" d="M1953.432,4513.015l1.05-.072,1.615-.11,1.614-.11h.018" transform="translate(-1940.7 -4512.497)"/></g></svg>