<svg xmlns="http://www.w3.org/2000/svg" width="33" height="35" viewBox="0 0 33 35">
    <defs>
        <style>.a,.b,.d{fill:none;}.a,.b{stroke:#e72327;}.a{stroke-width:2px;}.c{stroke:none;}</style>
    </defs>
    <g transform="translate(-619 -2664.194)">
        <g class="a" transform="translate(619 2664.194)">
            <rect class="c" width="33" height="35" rx="4"/>
            <rect class="d" x="1" y="1" width="31" height="33" rx="3"/>
        </g>
        <g class="b" transform="translate(627 2670.194)">
            <rect class="c" width="17" height="3" rx="1.5"/>
            <rect class="d" x="0.5" y="0.5" width="16" height="2" rx="1"/>
        </g>
        <g class="b" transform="translate(627 2675.194)">
            <rect class="c" width="17" height="3" rx="1.5"/>
            <rect class="d" x="0.5" y="0.5" width="16" height="2" rx="1"/>
        </g>
        <g class="b" transform="translate(627 2680.194)">
            <rect class="c" width="17" height="3" rx="1.5"/>
            <rect class="d" x="0.5" y="0.5" width="16" height="2" rx="1"/>
        </g>
        <g class="b" transform="translate(627 2690.194)">
            <rect class="c" width="17" height="3" rx="1.5"/>
            <rect class="d" x="0.5" y="0.5" width="16" height="2" rx="1"/>
        </g>
        <g class="b" transform="translate(627 2685.194)">
            <rect class="c" width="17" height="3" rx="1.5"/>
            <rect class="d" x="0.5" y="0.5" width="16" height="2" rx="1"/>
        </g>
    </g>
</svg>
