<svg xmlns="http://www.w3.org/2000/svg" width="33" height="56" viewBox="0 0 33 56"><defs><style>.a,.b,.d{fill:none;}.a,.b{stroke:#e72327;}.a{stroke-width:2px;}.c{stroke:none;}</style></defs><g transform="translate(-619 -2669)"><g class="a" transform="translate(619 2698)"><rect class="c" width="33" height="27" rx="4"/><rect class="d" x="1" y="1" width="31" height="25" rx="3"/></g><g class="a" transform="translate(628 2669)"><path class="c" d="M8,0H8a7,7,0,0,1,7,7V29a2,2,0,0,1-2,2H2a2,2,0,0,1-2-2V8A8,8,0,0,1,8,0Z"/><path class="d" d="M8,1H8a6,6,0,0,1,6,6V29a1,1,0,0,1-1,1H2a1,1,0,0,1-1-1V8A7,7,0,0,1,8,1Z"/></g><g class="b" transform="translate(633 2709)"><rect class="c" width="5" height="10" rx="2.5"/><rect class="d" x="0.5" y="0.5" width="4" height="9" rx="2"/></g></g></svg>